<svg width="189" height="28" viewBox="0 0 189 28" fill="none" xmlns="http://www.w3.org/2000/svg">
<path d="M28.1963 19L27.0537 16.0547H23.334L22.1978 19H21.106L24.7368 9.68164H25.708L29.3135 19H28.1963ZM26.73 15.0962L25.6445 12.1699C25.6191 12.0938 25.5768 11.9689 25.5176 11.7954C25.4626 11.6219 25.4054 11.4421 25.3462 11.2559C25.2869 11.0697 25.2383 10.9194 25.2002 10.8052C25.1579 10.9787 25.1113 11.1522 25.0605 11.3257C25.014 11.495 24.9674 11.6536 24.9209 11.8018C24.8743 11.9456 24.8341 12.0684 24.8003 12.1699L23.6958 15.0962H26.73ZM32.9189 19.127C32.0387 19.127 31.3405 18.8265 30.8242 18.2256C30.3122 17.6247 30.0562 16.7318 30.0562 15.5469C30.0562 14.3493 30.3185 13.4458 30.8433 12.8364C31.368 12.2228 32.0662 11.916 32.938 11.916C33.3062 11.916 33.6278 11.9647 33.9028 12.062C34.1779 12.1593 34.4149 12.2905 34.6138 12.4556C34.8127 12.6164 34.9798 12.8005 35.1152 13.0078H35.1914C35.1745 12.8766 35.1576 12.6968 35.1406 12.4683C35.1237 12.2397 35.1152 12.0535 35.1152 11.9097V9.12305H36.1689V19H35.3184L35.1597 18.0098H35.1152C34.984 18.2171 34.8169 18.4054 34.6138 18.5747C34.4149 18.744 34.1758 18.8794 33.8965 18.981C33.6214 19.0783 33.2956 19.127 32.9189 19.127ZM33.084 18.251C33.8288 18.251 34.3556 18.0394 34.6646 17.6162C34.9735 17.193 35.1279 16.5646 35.1279 15.731V15.5405C35.1279 14.6561 34.9798 13.9769 34.6836 13.5029C34.3916 13.029 33.8584 12.792 33.084 12.792C32.4365 12.792 31.952 13.0417 31.6304 13.541C31.3088 14.0361 31.1479 14.7132 31.1479 15.5723C31.1479 16.4271 31.3066 17.0872 31.624 17.5527C31.9456 18.0182 32.4323 18.251 33.084 18.251ZM40.8789 19.127C39.9987 19.127 39.3005 18.8265 38.7842 18.2256C38.2721 17.6247 38.0161 16.7318 38.0161 15.5469C38.0161 14.3493 38.2785 13.4458 38.8032 12.8364C39.328 12.2228 40.0262 11.916 40.8979 11.916C41.2661 11.916 41.5877 11.9647 41.8628 12.062C42.1379 12.1593 42.3748 12.2905 42.5737 12.4556C42.7726 12.6164 42.9398 12.8005 43.0752 13.0078H43.1514C43.1344 12.8766 43.1175 12.6968 43.1006 12.4683C43.0837 12.2397 43.0752 12.0535 43.0752 11.9097V9.12305H44.1289V19H43.2783L43.1196 18.0098H43.0752C42.944 18.2171 42.7769 18.4054 42.5737 18.5747C42.3748 18.744 42.1357 18.8794 41.8564 18.981C41.5814 19.0783 41.2555 19.127 40.8789 19.127ZM41.0439 18.251C41.7887 18.251 42.3156 18.0394 42.6245 17.6162C42.9334 17.193 43.0879 16.5646 43.0879 15.731V15.5405C43.0879 14.6561 42.9398 13.9769 42.6436 13.5029C42.3516 13.029 41.8184 12.792 41.0439 12.792C40.3965 12.792 39.9119 13.0417 39.5903 13.541C39.2687 14.0361 39.1079 14.7132 39.1079 15.5723C39.1079 16.4271 39.2666 17.0872 39.584 17.5527C39.9056 18.0182 40.3923 18.251 41.0439 18.251ZM55.1357 16.5308C55.1357 17.0809 54.9982 17.5506 54.7231 17.9399C54.4523 18.325 54.0715 18.6191 53.5806 18.8223C53.0897 19.0254 52.512 19.127 51.8477 19.127C51.4964 19.127 51.1642 19.11 50.8511 19.0762C50.5379 19.0423 50.2502 18.9937 49.9878 18.9302C49.7254 18.8667 49.4948 18.7884 49.2959 18.6953V17.6606C49.6133 17.7918 50.0005 17.9146 50.4575 18.0288C50.9146 18.1388 51.3927 18.1938 51.8921 18.1938C52.3576 18.1938 52.7511 18.1325 53.0728 18.0098C53.3944 17.8828 53.6377 17.703 53.8027 17.4702C53.972 17.2332 54.0566 16.9497 54.0566 16.6196C54.0566 16.3022 53.9868 16.0378 53.8472 15.8262C53.7075 15.6104 53.4748 15.4157 53.1489 15.2422C52.8273 15.0645 52.3872 14.8761 51.8286 14.6772C51.4351 14.5376 51.0881 14.3853 50.7876 14.2202C50.4871 14.0509 50.2354 13.8605 50.0322 13.6489C49.8291 13.4373 49.6746 13.1919 49.5688 12.9126C49.4673 12.6333 49.4165 12.3138 49.4165 11.9541C49.4165 11.459 49.5413 11.0358 49.791 10.6846C50.0449 10.3291 50.394 10.0583 50.8384 9.87207C51.2869 9.68164 51.8011 9.58643 52.3809 9.58643C52.876 9.58643 53.333 9.63298 53.752 9.72607C54.1751 9.81917 54.5623 9.94401 54.9136 10.1006L54.5771 11.0273C54.2428 10.8877 53.8874 10.7713 53.5107 10.6782C53.1383 10.5851 52.7533 10.5386 52.3555 10.5386C51.9577 10.5386 51.6213 10.5978 51.3462 10.7163C51.0754 10.8306 50.868 10.9935 50.7241 11.2051C50.5802 11.4167 50.5083 11.6685 50.5083 11.9604C50.5083 12.2863 50.576 12.5571 50.7114 12.7729C50.8511 12.9888 51.0711 13.1813 51.3716 13.3506C51.6763 13.5156 52.0783 13.6891 52.5776 13.8711C53.1235 14.07 53.5869 14.2816 53.9678 14.5059C54.3486 14.7259 54.6385 14.9967 54.8374 15.3184C55.0363 15.6357 55.1357 16.0399 55.1357 16.5308ZM62.6196 12.043V19H61.7563L61.604 18.0225H61.5469C61.403 18.2637 61.2168 18.4668 60.9883 18.6318C60.7598 18.7969 60.5016 18.9196 60.2139 19C59.9303 19.0846 59.6278 19.127 59.3062 19.127C58.756 19.127 58.2948 19.0381 57.9224 18.8604C57.55 18.6826 57.2686 18.4076 57.0781 18.0352C56.8919 17.6628 56.7988 17.1846 56.7988 16.6006V12.043H57.8652V16.5244C57.8652 17.1042 57.9964 17.5379 58.2588 17.8257C58.5212 18.1092 58.9211 18.251 59.4585 18.251C59.9748 18.251 60.3853 18.1536 60.6899 17.959C60.9989 17.7643 61.221 17.4787 61.3564 17.1021C61.4919 16.7212 61.5596 16.2557 61.5596 15.7056V12.043H62.6196ZM65.9014 9.12305V11.5923C65.9014 11.8758 65.8929 12.1509 65.876 12.4175C65.8633 12.6841 65.8527 12.8914 65.8442 13.0396H65.9014C66.0918 12.7264 66.3669 12.4619 66.7266 12.2461C67.0863 12.0303 67.5454 11.9224 68.104 11.9224C68.9757 11.9224 69.6698 12.2249 70.186 12.8301C70.7065 13.431 70.9668 14.326 70.9668 15.5151C70.9668 16.298 70.8483 16.9582 70.6113 17.4956C70.3743 18.033 70.04 18.4393 69.6084 18.7144C69.1768 18.9894 68.6668 19.127 68.0786 19.127C67.5285 19.127 67.0757 19.0254 66.7202 18.8223C66.369 18.6149 66.0981 18.3631 65.9077 18.0669H65.8252L65.6094 19H64.8477V9.12305H65.9014ZM67.9326 12.8047C67.429 12.8047 67.0291 12.9041 66.7329 13.103C66.4367 13.2977 66.223 13.5939 66.0918 13.9917C65.9648 14.3853 65.9014 14.8846 65.9014 15.4897V15.5469C65.9014 16.4229 66.0474 17.0936 66.3394 17.5591C66.6313 18.0203 67.1624 18.251 67.9326 18.251C68.5801 18.251 69.0646 18.014 69.3862 17.54C69.7121 17.0661 69.875 16.389 69.875 15.5088C69.875 14.6117 69.7142 13.9367 69.3926 13.4839C69.0752 13.0311 68.5885 12.8047 67.9326 12.8047ZM71.9697 22.123C71.7539 22.123 71.5656 22.1061 71.4048 22.0723C71.244 22.0426 71.1043 22.0067 70.9858 21.9644V21.1074C71.117 21.1497 71.2503 21.1815 71.3857 21.2026C71.5212 21.228 71.6735 21.2407 71.8428 21.2407C72.1305 21.2407 72.3633 21.1603 72.541 20.9995C72.7188 20.8387 72.8076 20.5467 72.8076 20.1235V12.043H73.8613V20.0981C73.8613 20.5213 73.7936 20.8831 73.6582 21.1836C73.5228 21.4883 73.3154 21.721 73.0361 21.8818C72.7568 22.0426 72.4014 22.123 71.9697 22.123ZM72.7124 10.1323C72.7124 9.89535 72.7716 9.72184 72.8901 9.61182C73.0129 9.49756 73.1652 9.44043 73.3472 9.44043C73.5207 9.44043 73.6688 9.49756 73.7915 9.61182C73.9185 9.72184 73.9819 9.89535 73.9819 10.1323C73.9819 10.3651 73.9185 10.5386 73.7915 10.6528C73.6688 10.7671 73.5207 10.8242 73.3472 10.8242C73.1652 10.8242 73.0129 10.7671 72.8901 10.6528C72.7716 10.5386 72.7124 10.3651 72.7124 10.1323ZM78.7744 11.916C79.3669 11.916 79.8747 12.0472 80.2979 12.3096C80.721 12.5719 81.0448 12.9401 81.269 13.4141C81.4933 13.8838 81.6055 14.4339 81.6055 15.0645V15.7183H76.8003C76.813 16.535 77.0161 17.1571 77.4097 17.5845C77.8032 18.0119 78.3576 18.2256 79.0728 18.2256C79.5129 18.2256 79.9022 18.1854 80.2407 18.105C80.5793 18.0246 80.9305 17.9061 81.2944 17.7495V18.6763C80.9432 18.8328 80.5941 18.9471 80.2471 19.019C79.9043 19.091 79.498 19.127 79.0283 19.127C78.3597 19.127 77.7757 18.9915 77.2764 18.7207C76.7812 18.4456 76.3962 18.0436 76.1211 17.5146C75.846 16.9857 75.7085 16.3382 75.7085 15.5723C75.7085 14.8232 75.8333 14.1758 76.083 13.6299C76.3369 13.0798 76.6924 12.6566 77.1494 12.3604C77.6107 12.0641 78.1523 11.916 78.7744 11.916ZM78.7617 12.7793C78.1989 12.7793 77.7503 12.9634 77.416 13.3315C77.0817 13.6997 76.8828 14.2139 76.8193 14.874H80.501C80.4967 14.4593 80.4312 14.0954 80.3042 13.7822C80.1815 13.4648 79.9932 13.2194 79.7393 13.0459C79.4854 12.8682 79.1595 12.7793 78.7617 12.7793ZM86.1821 19.127C85.5558 19.127 85.0036 18.9979 84.5254 18.7397C84.0472 18.4816 83.6748 18.0881 83.4082 17.5591C83.1416 17.0301 83.0083 16.3636 83.0083 15.5596C83.0083 14.7174 83.1479 14.0298 83.4272 13.4966C83.7108 12.9591 84.1001 12.5614 84.5952 12.3032C85.0903 12.0451 85.6532 11.916 86.2837 11.916C86.6307 11.916 86.965 11.952 87.2866 12.0239C87.6125 12.0916 87.8791 12.1784 88.0864 12.2842L87.769 13.1665C87.5575 13.0819 87.312 13.0057 87.0327 12.938C86.7576 12.8703 86.4995 12.8364 86.2583 12.8364C85.7759 12.8364 85.3739 12.9401 85.0522 13.1475C84.7349 13.3548 84.4958 13.6595 84.335 14.0615C84.1784 14.4635 84.1001 14.9587 84.1001 15.5469C84.1001 16.1097 84.1763 16.59 84.3286 16.9878C84.4852 17.3856 84.7158 17.6903 85.0205 17.9019C85.3294 18.1092 85.7145 18.2129 86.1758 18.2129C86.5439 18.2129 86.8761 18.1748 87.1724 18.0986C87.4686 18.0182 87.7373 17.9251 87.9785 17.8193V18.7588C87.7458 18.8773 87.4855 18.9683 87.1978 19.0317C86.9142 19.0952 86.5757 19.127 86.1821 19.127ZM91.876 18.2637C92.0495 18.2637 92.2272 18.2489 92.4092 18.2192C92.5911 18.1896 92.7393 18.1536 92.8535 18.1113V18.9302C92.7308 18.9852 92.5594 19.0317 92.3394 19.0698C92.1235 19.1079 91.9119 19.127 91.7046 19.127C91.3364 19.127 91.0021 19.0635 90.7017 18.9365C90.4012 18.8053 90.16 18.5853 89.978 18.2764C89.8003 17.9674 89.7114 17.54 89.7114 16.9941V12.8682H88.7212V12.354L89.7178 11.9414L90.1367 10.4307H90.7715V12.043H92.8091V12.8682H90.7715V16.9624C90.7715 17.3983 90.8709 17.7241 91.0698 17.9399C91.2729 18.1558 91.5417 18.2637 91.876 18.2637ZM103.638 15.5088C103.638 16.0801 103.564 16.59 103.416 17.0386C103.268 17.4871 103.054 17.8659 102.775 18.1748C102.496 18.4837 102.157 18.7207 101.759 18.8857C101.366 19.0465 100.919 19.127 100.42 19.127C99.9544 19.127 99.527 19.0465 99.1377 18.8857C98.7526 18.7207 98.4183 18.4837 98.1348 18.1748C97.8555 17.8659 97.6375 17.4871 97.481 17.0386C97.3286 16.59 97.2524 16.0801 97.2524 15.5088C97.2524 14.7471 97.3815 14.0996 97.6396 13.5664C97.8978 13.029 98.266 12.6206 98.7441 12.3413C99.2266 12.0578 99.8 11.916 100.464 11.916C101.099 11.916 101.653 12.0578 102.127 12.3413C102.606 12.6248 102.976 13.0353 103.238 13.5728C103.505 14.106 103.638 14.7513 103.638 15.5088ZM98.3442 15.5088C98.3442 16.0674 98.4183 16.5519 98.5664 16.9624C98.7145 17.3729 98.943 17.6903 99.252 17.9146C99.5609 18.1388 99.9587 18.251 100.445 18.251C100.928 18.251 101.323 18.1388 101.632 17.9146C101.945 17.6903 102.176 17.3729 102.324 16.9624C102.472 16.5519 102.546 16.0674 102.546 15.5088C102.546 14.9544 102.472 14.4762 102.324 14.0742C102.176 13.668 101.948 13.3548 101.639 13.1348C101.33 12.9147 100.93 12.8047 100.439 12.8047C99.7153 12.8047 99.1842 13.0438 98.8457 13.522C98.5114 14.0002 98.3442 14.6624 98.3442 15.5088ZM108.558 12.8682H106.825V19H105.771V12.8682H104.54V12.3604L105.771 12.0112V11.5479C105.771 10.9639 105.858 10.4899 106.031 10.126C106.205 9.75781 106.457 9.48698 106.787 9.31348C107.117 9.13997 107.519 9.05322 107.993 9.05322C108.259 9.05322 108.503 9.0765 108.723 9.12305C108.947 9.1696 109.144 9.22249 109.313 9.28174L109.04 10.1133C108.896 10.0667 108.733 10.0244 108.551 9.98633C108.374 9.94401 108.192 9.92285 108.005 9.92285C107.603 9.92285 107.305 10.054 107.11 10.3164C106.92 10.5745 106.825 10.9808 106.825 11.5352V12.043H108.558V12.8682ZM113.375 19V9.71973H114.455V19H113.375ZM120.142 11.916C120.967 11.916 121.591 12.1191 122.015 12.5254C122.438 12.9274 122.649 13.5749 122.649 14.4678V19H121.608V14.5376C121.608 13.9578 121.475 13.5241 121.208 13.2363C120.946 12.9486 120.542 12.8047 119.996 12.8047C119.226 12.8047 118.684 13.0226 118.371 13.4585C118.058 13.8944 117.901 14.527 117.901 15.3564V19H116.848V12.043H117.698L117.857 13.0459H117.914C118.062 12.8005 118.25 12.5952 118.479 12.4302C118.708 12.2609 118.964 12.134 119.247 12.0493C119.531 11.9604 119.829 11.916 120.142 11.916ZM129.321 17.0957C129.321 17.54 129.209 17.9146 128.984 18.2192C128.764 18.5197 128.447 18.7461 128.032 18.8984C127.622 19.0508 127.131 19.127 126.56 19.127C126.073 19.127 125.652 19.0889 125.296 19.0127C124.941 18.9365 124.63 18.8286 124.363 18.689V17.7178C124.647 17.8574 124.985 17.9844 125.379 18.0986C125.772 18.2129 126.174 18.27 126.585 18.27C127.186 18.27 127.622 18.1727 127.893 17.978C128.163 17.7834 128.299 17.5189 128.299 17.1846C128.299 16.9941 128.244 16.827 128.134 16.6831C128.028 16.535 127.848 16.3932 127.594 16.2578C127.34 16.1182 126.989 15.9658 126.541 15.8008C126.096 15.6315 125.711 15.4644 125.385 15.2993C125.064 15.13 124.814 14.9248 124.636 14.6836C124.463 14.4424 124.376 14.1292 124.376 13.7441C124.376 13.1559 124.613 12.7052 125.087 12.3921C125.565 12.0747 126.191 11.916 126.966 11.916C127.385 11.916 127.776 11.9583 128.14 12.043C128.508 12.1234 128.851 12.2334 129.168 12.373L128.813 13.2173C128.525 13.0946 128.218 12.9909 127.893 12.9062C127.567 12.8216 127.235 12.7793 126.896 12.7793C126.409 12.7793 126.035 12.8597 125.772 13.0205C125.514 13.1813 125.385 13.4014 125.385 13.6807C125.385 13.8965 125.444 14.0742 125.563 14.2139C125.686 14.3535 125.88 14.4847 126.147 14.6074C126.414 14.7301 126.765 14.874 127.201 15.0391C127.637 15.1999 128.013 15.367 128.331 15.5405C128.648 15.7098 128.891 15.9172 129.061 16.1626C129.234 16.4038 129.321 16.7148 129.321 17.0957ZM136.76 12.043V19H135.897L135.745 18.0225H135.688C135.544 18.2637 135.357 18.4668 135.129 18.6318C134.9 18.7969 134.642 18.9196 134.354 19C134.071 19.0846 133.768 19.127 133.447 19.127C132.897 19.127 132.435 19.0381 132.063 18.8604C131.691 18.6826 131.409 18.4076 131.219 18.0352C131.033 17.6628 130.939 17.1846 130.939 16.6006V12.043H132.006V16.5244C132.006 17.1042 132.137 17.5379 132.399 17.8257C132.662 18.1092 133.062 18.251 133.599 18.251C134.115 18.251 134.526 18.1536 134.831 17.959C135.139 17.7643 135.362 17.4787 135.497 17.1021C135.632 16.7212 135.7 16.2557 135.7 15.7056V12.043H136.76ZM142.149 11.916C142.289 11.916 142.435 11.9245 142.587 11.9414C142.74 11.9541 142.875 11.9731 142.994 11.9985L142.86 12.9761C142.746 12.9465 142.619 12.9232 142.479 12.9062C142.34 12.8893 142.209 12.8809 142.086 12.8809C141.807 12.8809 141.542 12.938 141.292 13.0522C141.047 13.1623 140.831 13.3231 140.645 13.5347C140.459 13.742 140.313 13.9938 140.207 14.29C140.101 14.582 140.048 14.9079 140.048 15.2676V19H138.988V12.043H139.864L139.979 13.3252H140.023C140.167 13.0671 140.34 12.8322 140.543 12.6206C140.747 12.4048 140.981 12.2334 141.248 12.1064C141.519 11.9795 141.819 11.916 142.149 11.916ZM146.91 11.9287C147.74 11.9287 148.355 12.1149 148.757 12.4873C149.159 12.8597 149.36 13.4543 149.36 14.271V19H148.592L148.389 17.9717H148.338C148.144 18.2256 147.941 18.4393 147.729 18.6128C147.517 18.7821 147.272 18.9111 146.993 19C146.718 19.0846 146.379 19.127 145.977 19.127C145.554 19.127 145.177 19.0529 144.847 18.9048C144.521 18.7567 144.263 18.5324 144.073 18.2319C143.887 17.9315 143.793 17.5506 143.793 17.0894C143.793 16.3953 144.069 15.8621 144.619 15.4897C145.169 15.1174 146.007 14.9142 147.132 14.8804L148.332 14.8296V14.4043C148.332 13.8034 148.203 13.3823 147.945 13.1411C147.687 12.8999 147.323 12.7793 146.853 12.7793C146.489 12.7793 146.142 12.8322 145.812 12.938C145.482 13.0438 145.169 13.1686 144.873 13.3125L144.549 12.5127C144.862 12.3519 145.222 12.2144 145.628 12.1001C146.034 11.9858 146.462 11.9287 146.91 11.9287ZM148.319 15.5723L147.259 15.6167C146.392 15.6506 145.78 15.7923 145.425 16.042C145.069 16.2917 144.892 16.645 144.892 17.1021C144.892 17.4998 145.012 17.7939 145.253 17.9844C145.495 18.1748 145.814 18.27 146.212 18.27C146.83 18.27 147.335 18.0986 147.729 17.7559C148.123 17.4131 148.319 16.8989 148.319 16.2134V15.5723ZM154.826 11.916C155.651 11.916 156.275 12.1191 156.698 12.5254C157.121 12.9274 157.333 13.5749 157.333 14.4678V19H156.292V14.5376C156.292 13.9578 156.159 13.5241 155.892 13.2363C155.63 12.9486 155.226 12.8047 154.68 12.8047C153.91 12.8047 153.368 13.0226 153.055 13.4585C152.742 13.8944 152.585 14.527 152.585 15.3564V19H151.531V12.043H152.382L152.541 13.0459H152.598C152.746 12.8005 152.934 12.5952 153.163 12.4302C153.391 12.2609 153.647 12.134 153.931 12.0493C154.214 11.9604 154.513 11.916 154.826 11.916ZM162.291 19.127C161.664 19.127 161.112 18.9979 160.634 18.7397C160.156 18.4816 159.783 18.0881 159.517 17.5591C159.25 17.0301 159.117 16.3636 159.117 15.5596C159.117 14.7174 159.256 14.0298 159.536 13.4966C159.819 12.9591 160.208 12.5614 160.704 12.3032C161.199 12.0451 161.762 11.916 162.392 11.916C162.739 11.916 163.073 11.952 163.395 12.0239C163.721 12.0916 163.987 12.1784 164.195 12.2842L163.877 13.1665C163.666 13.0819 163.42 13.0057 163.141 12.938C162.866 12.8703 162.608 12.8364 162.367 12.8364C161.884 12.8364 161.482 12.9401 161.161 13.1475C160.843 13.3548 160.604 13.6595 160.443 14.0615C160.287 14.4635 160.208 14.9587 160.208 15.5469C160.208 16.1097 160.285 16.59 160.437 16.9878C160.594 17.3856 160.824 17.6903 161.129 17.9019C161.438 18.1092 161.823 18.2129 162.284 18.2129C162.652 18.2129 162.985 18.1748 163.281 18.0986C163.577 18.0182 163.846 17.9251 164.087 17.8193V18.7588C163.854 18.8773 163.594 18.9683 163.306 19.0317C163.023 19.0952 162.684 19.127 162.291 19.127ZM168.416 11.916C169.008 11.916 169.516 12.0472 169.939 12.3096C170.363 12.5719 170.686 12.9401 170.911 13.4141C171.135 13.8838 171.247 14.4339 171.247 15.0645V15.7183H166.442C166.455 16.535 166.658 17.1571 167.051 17.5845C167.445 18.0119 167.999 18.2256 168.714 18.2256C169.154 18.2256 169.544 18.1854 169.882 18.105C170.221 18.0246 170.572 17.9061 170.936 17.7495V18.6763C170.585 18.8328 170.236 18.9471 169.889 19.019C169.546 19.091 169.14 19.127 168.67 19.127C168.001 19.127 167.417 18.9915 166.918 18.7207C166.423 18.4456 166.038 18.0436 165.763 17.5146C165.488 16.9857 165.35 16.3382 165.35 15.5723C165.35 14.8232 165.475 14.1758 165.725 13.6299C165.979 13.0798 166.334 12.6566 166.791 12.3604C167.252 12.0641 167.794 11.916 168.416 11.916ZM168.403 12.7793C167.84 12.7793 167.392 12.9634 167.058 13.3315C166.723 13.6997 166.524 14.2139 166.461 14.874H170.143C170.138 14.4593 170.073 14.0954 169.946 13.7822C169.823 13.4648 169.635 13.2194 169.381 13.0459C169.127 12.8682 168.801 12.7793 168.403 12.7793Z" fill="#2322F0"/>
<path fill-rule="evenodd" clip-rule="evenodd" d="M7.99448 6.13867C3.57817 6.13867 0 9.78136 0 14.2773C0 18.7732 3.57817 22.4159 7.99448 22.4159C12.4108 22.4159 15.989 18.7732 15.989 14.2773C15.989 9.78136 12.4108 6.13867 7.99448 6.13867ZM12.6364 15.1962C12.6364 15.4127 12.4624 15.59 12.2496 15.59H9.28391V18.6091C9.28391 18.8257 9.10984 19.0029 8.89708 19.0029H7.09188C6.87912 19.0029 6.70505 18.8257 6.70505 18.6091V15.59H3.73935C3.5266 15.59 3.35252 15.4127 3.35252 15.1962V13.3584C3.35252 13.1418 3.5266 12.9646 3.73935 12.9646H6.70505V9.94544C6.70505 9.72885 6.87912 9.55164 7.09188 9.55164H8.89708C9.10984 9.55164 9.28391 9.72885 9.28391 9.94544V12.9646H12.2496C12.4624 12.9646 12.6364 13.1418 12.6364 13.3584V15.1962Z" fill="#2322F0"/>
</svg>
