<svg width="141" height="33" viewBox="0 0 141 33" fill="none" xmlns="http://www.w3.org/2000/svg">
<rect x="0.5" y="0.5" width="140" height="32" fill="#2322F0"/>
<rect x="0.5" y="0.5" width="140" height="32" stroke="#2322F0"/>
<path fill-rule="evenodd" clip-rule="evenodd" d="M21.96 9.5C18.1152 9.5 15 12.6152 15 16.46C15 20.3048 18.1152 23.42 21.96 23.42C25.8048 23.42 28.92 20.3048 28.92 16.46C28.92 12.6152 25.8048 9.5 21.96 9.5ZM26.0013 17.2458C26.0013 17.431 25.8497 17.5826 25.6645 17.5826H23.0826V20.1645C23.0826 20.3497 22.931 20.5013 22.7458 20.5013H21.1742C20.989 20.5013 20.8374 20.3497 20.8374 20.1645V17.5826H18.2555C18.0703 17.5826 17.9187 17.431 17.9187 17.2458V15.6742C17.9187 15.489 18.0703 15.3374 18.2555 15.3374H20.8374V12.7555C20.8374 12.5703 20.989 12.4187 21.1742 12.4187H22.7458C22.931 12.4187 23.0826 12.5703 23.0826 12.7555V15.3374H25.6645C25.8497 15.3374 26.0013 15.489 26.0013 15.6742V17.2458Z" fill="white"/>
<text x="37" y="20.5" font-family="Open Sans, sans-serif" font-weight="600" font-size="11" fill="white" letter-spacing="0.5">ADD VEHICLE</text>
</svg>
