<svg width="189" height="28" viewBox="0 0 189 28" fill="none" xmlns="http://www.w3.org/2000/svg">
<path d="M28.1962 19L27.0536 16.0547H23.3339L22.1977 19H21.1059L24.7368 9.68164H25.7079L29.3134 19H28.1962ZM26.7299 15.0962L25.6445 12.1699C25.6191 12.0938 25.5768 11.9689 25.5175 11.7954C25.4625 11.6219 25.4054 11.4421 25.3461 11.2559C25.2869 11.0697 25.2382 10.9194 25.2001 10.8052C25.1578 10.9787 25.1113 11.1522 25.0605 11.3257C25.0139 11.495 24.9674 11.6536 24.9208 11.8018C24.8743 11.9456 24.8341 12.0684 24.8002 12.1699L23.6957 15.0962H26.7299ZM37.9716 14.271C37.9716 15.3162 37.7812 16.1901 37.4003 16.8926C37.0195 17.5908 36.4672 18.1177 35.7436 18.4731C35.0242 18.8244 34.1503 19 33.122 19H30.602V9.71973H33.4013C34.345 9.71973 35.1575 9.89323 35.8388 10.2402C36.5201 10.583 37.0449 11.0929 37.413 11.77C37.7854 12.4429 37.9716 13.2765 37.9716 14.271ZM36.8354 14.3091C36.8354 13.4754 36.6957 12.7878 36.4164 12.2461C36.1414 11.7044 35.7351 11.3024 35.1977 11.04C34.6645 10.7734 34.0107 10.6401 33.2363 10.6401H31.6811V18.0732H32.9951C34.2731 18.0732 35.2315 17.758 35.8705 17.1274C36.5138 16.4969 36.8354 15.5575 36.8354 14.3091ZM47.4042 14.271C47.4042 15.3162 47.2138 16.1901 46.8329 16.8926C46.4521 17.5908 45.8998 18.1177 45.1762 18.4731C44.4568 18.8244 43.5829 19 42.5546 19H40.0346V9.71973H42.8339C43.7776 9.71973 44.5901 9.89323 45.2714 10.2402C45.9527 10.583 46.4775 11.0929 46.8456 11.77C47.218 12.4429 47.4042 13.2765 47.4042 14.271ZM46.268 14.3091C46.268 13.4754 46.1284 12.7878 45.8491 12.2461C45.574 11.7044 45.1677 11.3024 44.6303 11.04C44.0971 10.7734 43.4433 10.6401 42.6689 10.6401H41.1137V18.0732H42.4277C43.7057 18.0732 44.6642 17.758 45.3032 17.1274C45.9464 16.4969 46.268 15.5575 46.268 14.3091ZM58.081 16.5308C58.081 17.0809 57.9435 17.5506 57.6684 17.9399C57.3976 18.325 57.0167 18.6191 56.5258 18.8223C56.0349 19.0254 55.4573 19.127 54.7929 19.127C54.4417 19.127 54.1095 19.11 53.7963 19.0762C53.4832 19.0423 53.1954 18.9937 52.933 18.9302C52.6707 18.8667 52.44 18.7884 52.2411 18.6953V17.6606C52.5585 17.7918 52.9457 17.9146 53.4028 18.0288C53.8598 18.1388 54.338 18.1938 54.8373 18.1938C55.3028 18.1938 55.6964 18.1325 56.018 18.0098C56.3396 17.8828 56.5829 17.703 56.748 17.4702C56.9173 17.2332 57.0019 16.9497 57.0019 16.6196C57.0019 16.3022 56.9321 16.0378 56.7924 15.8262C56.6528 15.6104 56.42 15.4157 56.0942 15.2422C55.7726 15.0645 55.3325 14.8761 54.7739 14.6772C54.3803 14.5376 54.0333 14.3853 53.7328 14.2202C53.4324 14.0509 53.1806 13.8605 52.9775 13.6489C52.7744 13.4373 52.6199 13.1919 52.5141 12.9126C52.4125 12.6333 52.3618 12.3138 52.3618 11.9541C52.3618 11.459 52.4866 11.0358 52.7363 10.6846C52.9902 10.3291 53.3393 10.0583 53.7836 9.87207C54.2322 9.68164 54.7464 9.58643 55.3261 9.58643C55.8212 9.58643 56.2783 9.63298 56.6972 9.72607C57.1204 9.81917 57.5076 9.94401 57.8588 10.1006L57.5224 11.0273C57.1881 10.8877 56.8326 10.7713 56.456 10.6782C56.0836 10.5851 55.6985 10.5386 55.3007 10.5386C54.9029 10.5386 54.5665 10.5978 54.2914 10.7163C54.0206 10.8306 53.8133 10.9935 53.6694 11.2051C53.5255 11.4167 53.4536 11.6685 53.4536 11.9604C53.4536 12.2863 53.5213 12.5571 53.6567 12.7729C53.7963 12.9888 54.0164 13.1813 54.3168 13.3506C54.6215 13.5156 55.0235 13.6891 55.5229 13.8711C56.0688 14.07 56.5322 14.2816 56.913 14.5059C57.2939 14.7259 57.5838 14.9967 57.7827 15.3184C57.9815 15.6357 58.081 16.0399 58.081 16.5308ZM65.5649 12.043V19H64.7016L64.5493 18.0225H64.4921C64.3482 18.2637 64.162 18.4668 63.9335 18.6318C63.705 18.7969 63.4469 18.9196 63.1591 19C62.8756 19.0846 62.573 19.127 62.2514 19.127C61.7013 19.127 61.24 19.0381 60.8676 18.8604C60.4952 18.6826 60.2138 18.4076 60.0234 18.0352C59.8372 17.6628 59.7441 17.1846 59.7441 16.6006V12.043H60.8105V16.5244C60.8105 17.1042 60.9417 17.5379 61.204 17.8257C61.4664 18.1092 61.8663 18.251 62.4037 18.251C62.92 18.251 63.3305 18.1536 63.6352 17.959C63.9441 17.7643 64.1663 17.4787 64.3017 17.1021C64.4371 16.7212 64.5048 16.2557 64.5048 15.7056V12.043H65.5649ZM68.8466 9.12305V11.5923C68.8466 11.8758 68.8382 12.1509 68.8212 12.4175C68.8085 12.6841 68.798 12.8914 68.7895 13.0396H68.8466C69.037 12.7264 69.3121 12.4619 69.6718 12.2461C70.0315 12.0303 70.4907 11.9224 71.0493 11.9224C71.921 11.9224 72.615 12.2249 73.1313 12.8301C73.6518 13.431 73.912 14.326 73.912 15.5151C73.912 16.298 73.7936 16.9582 73.5566 17.4956C73.3196 18.033 72.9853 18.4393 72.5536 18.7144C72.122 18.9894 71.6121 19.127 71.0239 19.127C70.4737 19.127 70.0209 19.0254 69.6655 18.8223C69.3142 18.6149 69.0434 18.3631 68.853 18.0669H68.7704L68.5546 19H67.7929V9.12305H68.8466ZM70.8779 12.8047C70.3743 12.8047 69.9744 12.9041 69.6782 13.103C69.3819 13.2977 69.1682 13.5939 69.037 13.9917C68.9101 14.3853 68.8466 14.8846 68.8466 15.4897V15.5469C68.8466 16.4229 68.9926 17.0936 69.2846 17.5591C69.5766 18.0203 70.1077 18.251 70.8779 18.251C71.5253 18.251 72.0099 18.014 72.3315 17.54C72.6573 17.0661 72.8203 16.389 72.8203 15.5088C72.8203 14.6117 72.6594 13.9367 72.3378 13.4839C72.0204 13.0311 71.5338 12.8047 70.8779 12.8047ZM74.915 22.123C74.6992 22.123 74.5108 22.1061 74.35 22.0723C74.1892 22.0426 74.0496 22.0067 73.9311 21.9644V21.1074C74.0623 21.1497 74.1956 21.1815 74.331 21.2026C74.4664 21.228 74.6188 21.2407 74.788 21.2407C75.0758 21.2407 75.3085 21.1603 75.4863 20.9995C75.664 20.8387 75.7529 20.5467 75.7529 20.1235V12.043H76.8066V20.0981C76.8066 20.5213 76.7389 20.8831 76.6035 21.1836C76.468 21.4883 76.2607 21.721 75.9814 21.8818C75.7021 22.0426 75.3466 22.123 74.915 22.123ZM75.6577 10.1323C75.6577 9.89535 75.7169 9.72184 75.8354 9.61182C75.9581 9.49756 76.1105 9.44043 76.2924 9.44043C76.4659 9.44043 76.614 9.49756 76.7368 9.61182C76.8637 9.72184 76.9272 9.89535 76.9272 10.1323C76.9272 10.3651 76.8637 10.5386 76.7368 10.6528C76.614 10.7671 76.4659 10.8242 76.2924 10.8242C76.1105 10.8242 75.9581 10.7671 75.8354 10.6528C75.7169 10.5386 75.6577 10.3651 75.6577 10.1323ZM81.7197 11.916C82.3121 11.916 82.8199 12.0472 83.2431 12.3096C83.6663 12.5719 83.99 12.9401 84.2143 13.4141C84.4386 13.8838 84.5507 14.4339 84.5507 15.0645V15.7183H79.7455C79.7582 16.535 79.9614 17.1571 80.3549 17.5845C80.7485 18.0119 81.3028 18.2256 82.018 18.2256C82.4581 18.2256 82.8474 18.1854 83.186 18.105C83.5245 18.0246 83.8758 17.9061 84.2397 17.7495V18.6763C83.8884 18.8328 83.5393 18.9471 83.1923 19.019C82.8495 19.091 82.4433 19.127 81.9736 19.127C81.305 19.127 80.721 18.9915 80.2216 18.7207C79.7265 18.4456 79.3414 18.0436 79.0663 17.5146C78.7913 16.9857 78.6537 16.3382 78.6537 15.5723C78.6537 14.8232 78.7786 14.1758 79.0283 13.6299C79.2822 13.0798 79.6376 12.6566 80.0947 12.3604C80.5559 12.0641 81.0976 11.916 81.7197 11.916ZM81.707 12.7793C81.1441 12.7793 80.6956 12.9634 80.3613 13.3315C80.027 13.6997 79.8281 14.2139 79.7646 14.874H83.4462C83.442 14.4593 83.3764 14.0954 83.2495 13.7822C83.1267 13.4648 82.9384 13.2194 82.6845 13.0459C82.4306 12.8682 82.1048 12.7793 81.707 12.7793ZM89.1274 19.127C88.5011 19.127 87.9488 18.9979 87.4706 18.7397C86.9925 18.4816 86.6201 18.0881 86.3535 17.5591C86.0869 17.0301 85.9536 16.3636 85.9536 15.5596C85.9536 14.7174 86.0932 14.0298 86.3725 13.4966C86.656 12.9591 87.0453 12.5614 87.5405 12.3032C88.0356 12.0451 88.5984 11.916 89.2289 11.916C89.5759 11.916 89.9103 11.952 90.2319 12.0239C90.5577 12.0916 90.8243 12.1784 91.0317 12.2842L90.7143 13.1665C90.5027 13.0819 90.2573 13.0057 89.978 12.938C89.7029 12.8703 89.4448 12.8364 89.2036 12.8364C88.7211 12.8364 88.3191 12.9401 87.9975 13.1475C87.6801 13.3548 87.441 13.6595 87.2802 14.0615C87.1236 14.4635 87.0453 14.9587 87.0453 15.5469C87.0453 16.1097 87.1215 16.59 87.2739 16.9878C87.4304 17.3856 87.6611 17.6903 87.9658 17.9019C88.2747 18.1092 88.6598 18.2129 89.121 18.2129C89.4892 18.2129 89.8214 18.1748 90.1176 18.0986C90.4138 18.0182 90.6826 17.9251 90.9238 17.8193V18.7588C90.691 18.8773 90.4308 18.9683 90.143 19.0317C89.8595 19.0952 89.5209 19.127 89.1274 19.127ZM94.8212 18.2637C94.9947 18.2637 95.1725 18.2489 95.3544 18.2192C95.5364 18.1896 95.6845 18.1536 95.7988 18.1113V18.9302C95.676 18.9852 95.5047 19.0317 95.2846 19.0698C95.0688 19.1079 94.8572 19.127 94.6498 19.127C94.2817 19.127 93.9474 19.0635 93.6469 18.9365C93.3465 18.8053 93.1052 18.5853 92.9233 18.2764C92.7455 17.9674 92.6567 17.54 92.6567 16.9941V12.8682H91.6664V12.354L92.663 11.9414L93.082 10.4307H93.7167V12.043H95.7543V12.8682H93.7167V16.9624C93.7167 17.3983 93.8162 17.7241 94.0151 17.9399C94.2182 18.1558 94.4869 18.2637 94.8212 18.2637ZM106.583 15.5088C106.583 16.0801 106.509 16.59 106.361 17.0386C106.213 17.4871 105.999 17.8659 105.72 18.1748C105.441 18.4837 105.102 18.7207 104.705 18.8857C104.311 19.0465 103.865 19.127 103.365 19.127C102.9 19.127 102.472 19.0465 102.083 18.8857C101.698 18.7207 101.364 18.4837 101.08 18.1748C100.801 17.8659 100.583 17.4871 100.426 17.0386C100.274 16.59 100.198 16.0801 100.198 15.5088C100.198 14.7471 100.327 14.0996 100.585 13.5664C100.843 13.029 101.211 12.6206 101.689 12.3413C102.172 12.0578 102.745 11.916 103.41 11.916C104.044 11.916 104.599 12.0578 105.073 12.3413C105.551 12.6248 105.921 13.0353 106.184 13.5728C106.45 14.106 106.583 14.7513 106.583 15.5088ZM101.289 15.5088C101.289 16.0674 101.364 16.5519 101.512 16.9624C101.66 17.3729 101.888 17.6903 102.197 17.9146C102.506 18.1388 102.904 18.251 103.391 18.251C103.873 18.251 104.269 18.1388 104.578 17.9146C104.891 17.6903 105.121 17.3729 105.269 16.9624C105.418 16.5519 105.492 16.0674 105.492 15.5088C105.492 14.9544 105.418 14.4762 105.269 14.0742C105.121 13.668 104.893 13.3548 104.584 13.1348C104.275 12.9147 103.875 12.8047 103.384 12.8047C102.661 12.8047 102.129 13.0438 101.791 13.522C101.457 14.0002 101.289 14.6624 101.289 15.5088ZM111.503 12.8682H109.77V19H108.716V12.8682H107.485V12.3604L108.716 12.0112V11.5479C108.716 10.9639 108.803 10.4899 108.977 10.126C109.15 9.75781 109.402 9.48698 109.732 9.31348C110.062 9.13997 110.464 9.05322 110.938 9.05322C111.205 9.05322 111.448 9.0765 111.668 9.12305C111.892 9.1696 112.089 9.22249 112.258 9.28174L111.985 10.1133C111.841 10.0667 111.678 10.0244 111.497 9.98633C111.319 9.94401 111.137 9.92285 110.951 9.92285C110.549 9.92285 110.25 10.054 110.056 10.3164C109.865 10.5745 109.77 10.9808 109.77 11.5352V12.043H111.503V12.8682ZM116.321 19V9.71973H117.4V19H116.321ZM123.087 11.916C123.913 11.916 124.537 12.1191 124.96 12.5254C125.383 12.9274 125.595 13.5749 125.595 14.4678V19H124.554V14.5376C124.554 13.9578 124.42 13.5241 124.154 13.2363C123.891 12.9486 123.487 12.8047 122.941 12.8047C122.171 12.8047 121.629 13.0226 121.316 13.4585C121.003 13.8944 120.847 14.527 120.847 15.3564V19H119.793V12.043H120.643L120.802 13.0459H120.859C121.007 12.8005 121.196 12.5952 121.424 12.4302C121.653 12.2609 121.909 12.134 122.192 12.0493C122.476 11.9604 122.774 11.916 123.087 11.916ZM132.266 17.0957C132.266 17.54 132.154 17.9146 131.93 18.2192C131.71 18.5197 131.392 18.7461 130.977 18.8984C130.567 19.0508 130.076 19.127 129.505 19.127C129.018 19.127 128.597 19.0889 128.242 19.0127C127.886 18.9365 127.575 18.8286 127.309 18.689V17.7178C127.592 17.8574 127.931 17.9844 128.324 18.0986C128.718 18.2129 129.12 18.27 129.53 18.27C130.131 18.27 130.567 18.1727 130.838 17.978C131.109 17.7834 131.244 17.5189 131.244 17.1846C131.244 16.9941 131.189 16.827 131.079 16.6831C130.973 16.535 130.793 16.3932 130.539 16.2578C130.286 16.1182 129.934 15.9658 129.486 15.8008C129.041 15.6315 128.656 15.4644 128.331 15.2993C128.009 15.13 127.759 14.9248 127.581 14.6836C127.408 14.4424 127.321 14.1292 127.321 13.7441C127.321 13.1559 127.558 12.7052 128.032 12.3921C128.51 12.0747 129.137 11.916 129.911 11.916C130.33 11.916 130.721 11.9583 131.085 12.043C131.454 12.1234 131.796 12.2334 132.114 12.373L131.758 13.2173C131.47 13.0946 131.164 12.9909 130.838 12.9062C130.512 12.8216 130.18 12.7793 129.841 12.7793C129.355 12.7793 128.98 12.8597 128.718 13.0205C128.46 13.1813 128.331 13.4014 128.331 13.6807C128.331 13.8965 128.39 14.0742 128.508 14.2139C128.631 14.3535 128.826 14.4847 129.092 14.6074C129.359 14.7301 129.71 14.874 130.146 15.0391C130.582 15.1999 130.958 15.367 131.276 15.5405C131.593 15.7098 131.837 15.9172 132.006 16.1626C132.179 16.4038 132.266 16.7148 132.266 17.0957ZM139.706 12.043V19H138.842L138.69 18.0225H138.633C138.489 18.2637 138.303 18.4668 138.074 18.6318C137.846 18.7969 137.588 18.9196 137.3 19C137.016 19.0846 136.714 19.127 136.392 19.127C135.842 19.127 135.381 19.0381 135.008 18.8604C134.636 18.6826 134.354 18.4076 134.164 18.0352C133.978 17.6628 133.885 17.1846 133.885 16.6006V12.043H134.951V16.5244C134.951 17.1042 135.082 17.5379 135.345 17.8257C135.607 18.1092 136.007 18.251 136.544 18.251C137.061 18.251 137.471 18.1536 137.776 17.959C138.085 17.7643 138.307 17.4787 138.442 17.1021C138.578 16.7212 138.645 16.2557 138.645 15.7056V12.043H139.706ZM145.095 11.916C145.234 11.916 145.38 11.9245 145.533 11.9414C145.685 11.9541 145.82 11.9731 145.939 11.9985L145.806 12.9761C145.691 12.9465 145.564 12.9232 145.425 12.9062C145.285 12.8893 145.154 12.8809 145.031 12.8809C144.752 12.8809 144.487 12.938 144.238 13.0522C143.992 13.1623 143.776 13.3231 143.59 13.5347C143.404 13.742 143.258 13.9938 143.152 14.29C143.046 14.582 142.994 14.9079 142.994 15.2676V19H141.934V12.043H142.81L142.924 13.3252H142.968C143.112 13.0671 143.286 12.8322 143.489 12.6206C143.692 12.4048 143.927 12.2334 144.193 12.1064C144.464 11.9795 144.765 11.916 145.095 11.916ZM149.855 11.9287C150.685 11.9287 151.301 12.1149 151.703 12.4873C152.105 12.8597 152.306 13.4543 152.306 14.271V19H151.538L151.334 17.9717H151.284C151.089 18.2256 150.886 18.4393 150.674 18.6128C150.463 18.7821 150.217 18.9111 149.938 19C149.663 19.0846 149.324 19.127 148.922 19.127C148.499 19.127 148.122 19.0529 147.792 18.9048C147.467 18.7567 147.208 18.5324 147.018 18.2319C146.832 17.9315 146.739 17.5506 146.739 17.0894C146.739 16.3953 147.014 15.8621 147.564 15.4897C148.114 15.1174 148.952 14.9142 150.078 14.8804L151.277 14.8296V14.4043C151.277 13.8034 151.148 13.3823 150.89 13.1411C150.632 12.8999 150.268 12.7793 149.798 12.7793C149.434 12.7793 149.087 12.8322 148.757 12.938C148.427 13.0438 148.114 13.1686 147.818 13.3125L147.494 12.5127C147.807 12.3519 148.167 12.2144 148.573 12.1001C148.979 11.9858 149.407 11.9287 149.855 11.9287ZM151.265 15.5723L150.205 15.6167C149.337 15.6506 148.726 15.7923 148.37 16.042C148.015 16.2917 147.837 16.645 147.837 17.1021C147.837 17.4998 147.957 17.7939 148.199 17.9844C148.44 18.1748 148.759 18.27 149.157 18.27C149.775 18.27 150.281 18.0986 150.674 17.7559C151.068 17.4131 151.265 16.8989 151.265 16.2134V15.5723ZM157.771 11.916C158.596 11.916 159.22 12.1191 159.643 12.5254C160.067 12.9274 160.278 13.5749 160.278 14.4678V19H159.237V14.5376C159.237 13.9578 159.104 13.5241 158.837 13.2363C158.575 12.9486 158.171 12.8047 157.625 12.8047C156.855 12.8047 156.313 13.0226 156 13.4585C155.687 13.8944 155.53 14.527 155.53 15.3564V19H154.477V12.043H155.327L155.486 13.0459H155.543C155.691 12.8005 155.879 12.5952 156.108 12.4302C156.336 12.2609 156.592 12.134 156.876 12.0493C157.159 11.9604 157.458 11.916 157.771 11.916ZM165.236 19.127C164.609 19.127 164.057 18.9979 163.579 18.7397C163.101 18.4816 162.728 18.0881 162.462 17.5591C162.195 17.0301 162.062 16.3636 162.062 15.5596C162.062 14.7174 162.202 14.0298 162.481 13.4966C162.764 12.9591 163.154 12.5614 163.649 12.3032C164.144 12.0451 164.707 11.916 165.337 11.916C165.684 11.916 166.019 11.952 166.34 12.0239C166.666 12.0916 166.933 12.1784 167.14 12.2842L166.823 13.1665C166.611 13.0819 166.366 13.0057 166.086 12.938C165.811 12.8703 165.553 12.8364 165.312 12.8364C164.83 12.8364 164.428 12.9401 164.106 13.1475C163.789 13.3548 163.549 13.6595 163.389 14.0615C163.232 14.4635 163.154 14.9587 163.154 15.5469C163.154 16.1097 163.23 16.59 163.382 16.9878C163.539 17.3856 163.769 17.6903 164.074 17.9019C164.383 18.1092 164.768 18.2129 165.229 18.2129C165.598 18.2129 165.93 18.1748 166.226 18.0986C166.522 18.0182 166.791 17.9251 167.032 17.8193V18.7588C166.799 18.8773 166.539 18.9683 166.251 19.0317C165.968 19.0952 165.629 19.127 165.236 19.127ZM171.361 11.916C171.954 11.916 172.462 12.0472 172.885 12.3096C173.308 12.5719 173.632 12.9401 173.856 13.4141C174.08 13.8838 174.192 14.4339 174.192 15.0645V15.7183H169.387C169.4 16.535 169.603 17.1571 169.997 17.5845C170.39 18.0119 170.944 18.2256 171.66 18.2256C172.1 18.2256 172.489 18.1854 172.828 18.105C173.166 18.0246 173.517 17.9061 173.881 17.7495V18.6763C173.53 18.8328 173.181 18.9471 172.834 19.019C172.491 19.091 172.085 19.127 171.615 19.127C170.947 19.127 170.363 18.9915 169.863 18.7207C169.368 18.4456 168.983 18.0436 168.708 17.5146C168.433 16.9857 168.295 16.3382 168.295 15.5723C168.295 14.8232 168.42 14.1758 168.67 13.6299C168.924 13.0798 169.279 12.6566 169.736 12.3604C170.198 12.0641 170.739 11.916 171.361 11.916ZM171.349 12.7793C170.786 12.7793 170.337 12.9634 170.003 13.3315C169.669 13.6997 169.47 14.2139 169.406 14.874H173.088C173.084 14.4593 173.018 14.0954 172.891 13.7822C172.768 13.4648 172.58 13.2194 172.326 13.0459C172.072 12.8682 171.746 12.7793 171.349 12.7793Z" fill="#2322F0"/>
<path fill-rule="evenodd" clip-rule="evenodd" d="M7.99448 6.13867C3.57817 6.13867 0 9.78136 0 14.2773C0 18.7732 3.57817 22.4159 7.99448 22.4159C12.4108 22.4159 15.989 18.7732 15.989 14.2773C15.989 9.78136 12.4108 6.13867 7.99448 6.13867ZM12.6364 15.1962C12.6364 15.4127 12.4624 15.59 12.2496 15.59H9.28391V18.6091C9.28391 18.8257 9.10984 19.0029 8.89708 19.0029H7.09188C6.87912 19.0029 6.70505 18.8257 6.70505 18.6091V15.59H3.73935C3.5266 15.59 3.35252 15.4127 3.35252 15.1962V13.3584C3.35252 13.1418 3.5266 12.9646 3.73935 12.9646H6.70505V9.94544C6.70505 9.72885 6.87912 9.55164 7.09188 9.55164H8.89708C9.10984 9.55164 9.28391 9.72885 9.28391 9.94544V12.9646H12.2496C12.4624 12.9646 12.6364 13.1418 12.6364 13.3584V15.1962Z" fill="#2322F0"/>
</svg>
