<svg width="141" height="33" viewBox="0 0 141 33" fill="none" xmlns="http://www.w3.org/2000/svg">
<rect x="0.5" y="0.5" width="140" height="32" fill="#2322F0"/>
<rect x="0.5" y="0.5" width="140" height="32" stroke="#2322F0"/>
<path fill-rule="evenodd" clip-rule="evenodd" d="M21.96 9.5C18.1152 9.5 15 12.6152 15 16.46C15 20.3048 18.1152 23.42 21.96 23.42C25.8048 23.42 28.92 20.3048 28.92 16.46C28.92 12.6152 25.8048 9.5 21.96 9.5ZM26.0013 17.2458C26.0013 17.431 25.8497 17.5826 25.6645 17.5826H23.0826V20.1645C23.0826 20.3497 22.931 20.5013 22.7458 20.5013H21.1742C20.989 20.5013 20.8374 20.3497 20.8374 20.1645V17.5826H18.2555C18.0703 17.5826 17.9187 17.431 17.9187 17.2458V15.6742C17.9187 15.489 18.0703 15.3374 18.2555 15.3374H20.8374V12.7555C20.8374 12.5703 20.989 12.4187 21.1742 12.4187H22.7458C22.931 12.4187 23.0826 12.5703 23.0826 12.7555V15.3374H25.6645C25.8497 15.3374 26.0013 15.489 26.0013 15.6742V17.2458Z" fill="white"/>
<path d="M40.5529 22L39.5754 19.2246H35.7541L34.7766 22H33.0471L36.7658 11.9648H38.5842L42.2961 22H40.5529ZM39.1516 17.8164L38.2014 15.082C38.1649 14.9635 38.1125 14.7972 38.0441 14.583C37.9758 14.3643 37.9074 14.1432 37.8391 13.9199C37.7707 13.6921 37.7137 13.5007 37.6682 13.3457C37.6226 13.5326 37.5656 13.7422 37.4973 13.9746C37.4335 14.2025 37.3697 14.4167 37.3059 14.6172C37.2466 14.8177 37.201 14.9727 37.1691 15.082L36.2121 17.8164H39.1516ZM51.8697 16.9072C51.8697 18.0329 51.6601 18.974 51.2408 19.7305C50.8215 20.4824 50.2131 21.0498 49.4156 21.4326C48.6181 21.8109 47.6565 22 46.5308 22H43.7554V12.0059H46.8316C47.8661 12.0059 48.7593 12.1927 49.5113 12.5664C50.2632 12.9355 50.8443 13.4847 51.2545 14.2139C51.6646 14.9385 51.8697 15.8363 51.8697 16.9072ZM50.1607 16.9551C50.1607 16.1348 50.0308 15.4603 49.7711 14.9316C49.5158 14.403 49.1376 14.0111 48.6363 13.7559C48.1395 13.4961 47.5266 13.3662 46.7974 13.3662H45.3961V20.626H46.5582C47.7658 20.626 48.6682 20.3184 49.2652 19.7031C49.8622 19.0879 50.1607 18.1719 50.1607 16.9551ZM62.2773 16.9072C62.2773 18.0329 62.0676 18.974 61.6484 19.7305C61.2291 20.4824 60.6207 21.0498 59.8232 21.4326C59.0256 21.8109 58.064 22 56.9384 22H54.163V12.0059H57.2392C58.2737 12.0059 59.1669 12.1927 59.9189 12.5664C60.6708 12.9355 61.2519 13.4847 61.662 14.2139C62.0722 14.9385 62.2773 15.8363 62.2773 16.9072ZM60.5683 16.9551C60.5683 16.1348 60.4384 15.4603 60.1786 14.9316C59.9234 14.403 59.5452 14.0111 59.0439 13.7559C58.5471 13.4961 57.9342 13.3662 57.205 13.3662H55.8036V20.626H56.9657C58.1734 20.626 59.0758 20.3184 59.6728 19.7031C60.2698 19.0879 60.5683 18.1719 60.5683 16.9551ZM71.2526 12.0059C72.5423 12.0059 73.4834 12.2702 74.0758 12.7988C74.6683 13.3275 74.9645 14.068 74.9645 15.0205C74.9645 15.4535 74.8961 15.8659 74.7594 16.2578C74.6273 16.6452 74.4085 16.9893 74.1032 17.29C73.7978 17.5863 73.3945 17.821 72.8932 17.9941C72.3965 18.1673 71.7835 18.2539 71.0543 18.2539H69.9879V22H68.3473V12.0059H71.2526ZM71.1432 13.3662H69.9879V16.8867H70.8834C71.3984 16.8867 71.8359 16.8275 72.1959 16.709C72.556 16.5859 72.8294 16.3923 73.0163 16.1279C73.2031 15.8636 73.2965 15.515 73.2965 15.082C73.2965 14.5033 73.1211 14.0726 72.7702 13.79C72.4238 13.5075 71.8815 13.3662 71.1432 13.3662ZM79.9102 12.0059C80.7715 12.0059 81.4824 12.1107 82.043 12.3203C82.6081 12.5299 83.0273 12.849 83.3008 13.2773C83.5788 13.7057 83.7178 14.2503 83.7178 14.9111C83.7178 15.4033 83.6266 15.8226 83.4443 16.1689C83.262 16.5153 83.0228 16.8024 82.7266 17.0303C82.4303 17.2581 82.1136 17.4404 81.7764 17.5771L84.6133 22H82.7607L80.3477 17.9941H78.7412V22H77.1006V12.0059H79.9102ZM79.8008 13.373H78.7412V16.6406H79.876C80.637 16.6406 81.1885 16.4993 81.5303 16.2168C81.8766 15.9342 82.0498 15.5173 82.0498 14.9658C82.0498 14.387 81.8652 13.9769 81.4961 13.7354C81.1315 13.4938 80.5664 13.373 79.8008 13.373ZM91.8421 22H86.182V12.0059H91.8421V13.3867H87.8226V16.1006H91.5892V17.4746H87.8226V20.6123H91.8421V22ZM98.4558 22L95.5779 13.6533H95.5163C95.53 13.8402 95.5459 14.0954 95.5642 14.4189C95.5824 14.7425 95.5984 15.0889 95.612 15.458C95.6257 15.8271 95.6325 16.1803 95.6325 16.5176V22H94.1423V12.0059H96.446L99.2146 19.9834H99.2556L102.12 12.0059H104.417V22H102.851V16.4355C102.851 16.1302 102.856 15.7998 102.865 15.4443C102.879 15.0889 102.892 14.7516 102.906 14.4326C102.924 14.1136 102.938 13.8584 102.947 13.667H102.892L99.905 22H98.4558ZM107.189 22V12.0059H108.829V22H107.189ZM117.377 19.2793C117.377 19.8717 117.232 20.3822 116.94 20.8105C116.653 21.2389 116.238 21.5671 115.696 21.7949C115.158 22.0228 114.515 22.1367 113.768 22.1367C113.403 22.1367 113.055 22.1162 112.722 22.0752C112.389 22.0342 112.075 21.9749 111.779 21.8975C111.487 21.8154 111.22 21.7174 110.979 21.6035V20.0586C111.385 20.2363 111.838 20.3981 112.339 20.5439C112.841 20.6852 113.351 20.7559 113.871 20.7559C114.294 20.7559 114.645 20.7012 114.923 20.5918C115.206 20.4779 115.415 20.3184 115.552 20.1133C115.689 19.9036 115.757 19.6598 115.757 19.3818C115.757 19.0856 115.678 18.835 115.518 18.6299C115.359 18.4248 115.117 18.238 114.793 18.0693C114.474 17.8962 114.073 17.7116 113.59 17.5156C113.262 17.3835 112.948 17.2331 112.647 17.0645C112.351 16.8958 112.086 16.6976 111.854 16.4697C111.622 16.2419 111.437 15.973 111.3 15.6631C111.168 15.3486 111.102 14.9795 111.102 14.5557C111.102 13.9906 111.236 13.5075 111.505 13.1064C111.779 12.7054 112.162 12.3978 112.654 12.1836C113.15 11.9694 113.729 11.8623 114.39 11.8623C114.914 11.8623 115.406 11.917 115.867 12.0264C116.331 12.1357 116.787 12.2907 117.234 12.4912L116.714 13.8105C116.304 13.6419 115.905 13.5075 115.518 13.4072C115.135 13.307 114.743 13.2568 114.342 13.2568C113.996 13.2568 113.702 13.3092 113.46 13.4141C113.219 13.5189 113.034 13.667 112.907 13.8584C112.784 14.0452 112.722 14.2686 112.722 14.5283C112.722 14.82 112.793 15.0661 112.934 15.2666C113.08 15.4626 113.303 15.6426 113.604 15.8066C113.909 15.9707 114.301 16.153 114.78 16.3535C115.331 16.5814 115.798 16.8206 116.181 17.0713C116.568 17.3219 116.865 17.6227 117.07 17.9736C117.275 18.32 117.377 18.7552 117.377 19.2793ZM125.105 22H119.445V12.0059H125.105V13.3867H121.086V16.1006H124.852V17.4746H121.086V20.6123H125.105V22Z" fill="white"/>
</svg>
