<svg width="123" height="33" viewBox="0 0 123 33" fill="none" xmlns="http://www.w3.org/2000/svg">
<rect x="0.5" y="0.5" width="122" height="32" fill="#2322F0"/>
<rect x="0.5" y="0.5" width="122" height="32" stroke="#2322F0"/>
<path fill-rule="evenodd" clip-rule="evenodd" d="M13.96 9.5C10.1152 9.5 7 12.6152 7 16.46C7 20.3048 10.1152 23.42 13.96 23.42C17.8048 23.42 20.92 20.3048 20.92 16.46C20.92 12.6152 17.8048 9.5 13.96 9.5ZM18.0013 17.2458C18.0013 17.431 17.8497 17.5826 17.6645 17.5826H15.0826V20.1645C15.0826 20.3497 14.931 20.5013 14.7458 20.5013H13.1742C12.989 20.5013 12.8374 20.3497 12.8374 20.1645V17.5826H10.2555C10.0703 17.5826 9.91871 17.431 9.91871 17.2458V15.6742C9.91871 15.489 10.0703 15.3374 10.2555 15.3374H12.8374V12.7555C12.8374 12.5703 12.989 12.4187 13.1742 12.4187H14.7458C14.931 12.4187 15.0826 12.5703 15.0826 12.7555V15.3374H17.6645C17.8497 15.3374 18.0013 15.489 18.0013 15.6742V17.2458Z" fill="white"/>
<path d="M32.7629 22L31.7854 19.2246H27.9641L26.9865 22H25.257L28.9758 11.9648H30.7941L34.5061 22H32.7629ZM31.3615 17.8164L30.4113 15.082C30.3749 14.9635 30.3225 14.7972 30.2541 14.583C30.1857 14.3643 30.1174 14.1432 30.049 13.9199C29.9807 13.6921 29.9237 13.5007 29.8781 13.3457C29.8326 13.5326 29.7756 13.7422 29.7072 13.9746C29.6434 14.2025 29.5796 14.4167 29.5158 14.6172C29.4566 14.8177 29.411 14.9727 29.3791 15.082L28.4221 17.8164H31.3615ZM44.0796 16.9072C44.0796 18.0329 43.87 18.974 43.4507 19.7305C43.0315 20.4824 42.4231 21.0498 41.6255 21.4326C40.828 21.8109 39.8664 22 38.7408 22H35.9654V12.0059H39.0416C40.0761 12.0059 40.9693 12.1927 41.7212 12.5664C42.4732 12.9355 43.0543 13.4847 43.4644 14.2139C43.8746 14.9385 44.0796 15.8363 44.0796 16.9072ZM42.3707 16.9551C42.3707 16.1348 42.2408 15.4603 41.981 14.9316C41.7258 14.403 41.3476 14.0111 40.8462 13.7559C40.3495 13.4961 39.7365 13.3662 39.0074 13.3662H37.606V20.626H38.7681C39.9758 20.626 40.8782 20.3184 41.4752 19.7031C42.0722 19.0879 42.3707 18.1719 42.3707 16.9551ZM54.4872 16.9072C54.4872 18.0329 54.2776 18.974 53.8583 19.7305C53.439 20.4824 52.8307 21.0498 52.0331 21.4326C51.2356 21.8109 50.274 22 49.1484 22H46.373V12.0059H49.4491C50.4836 12.0059 51.3769 12.1927 52.1288 12.5664C52.8808 12.9355 53.4618 13.4847 53.872 14.2139C54.2821 14.9385 54.4872 15.8363 54.4872 16.9072ZM52.7782 16.9551C52.7782 16.1348 52.6484 15.4603 52.3886 14.9316C52.1334 14.403 51.7551 14.0111 51.2538 13.7559C50.7571 13.4961 50.1441 13.3662 49.415 13.3662H48.0136V20.626H49.1757C50.3834 20.626 51.2857 20.3184 51.8827 19.7031C52.4797 19.0879 52.7782 18.1719 52.7782 16.9551ZM67.9674 12.0059L64.4743 22H62.7379L59.2448 12.0059H60.9264L63.0319 18.2676C63.0957 18.4499 63.164 18.6709 63.237 18.9307C63.3144 19.1904 63.3851 19.4525 63.4489 19.7168C63.5172 19.9811 63.5696 20.2158 63.6061 20.4209C63.6426 20.2158 63.6927 19.9811 63.7565 19.7168C63.8248 19.4525 63.8955 19.1904 63.9684 18.9307C64.0413 18.6709 64.1097 18.4476 64.1735 18.2607L66.2858 12.0059H67.9674ZM75.0801 22H69.4199V12.0059H75.0801V13.3867H71.0605V16.1006H74.8271V17.4746H71.0605V20.6123H75.0801V22ZM85.2621 22H83.6283V17.4883H79.0209V22H77.3802V12.0059H79.0209V16.0938H83.6283V12.0059H85.2621V22ZM88.0476 22V12.0059H89.6882V22H88.0476ZM96.7257 13.2568C96.2471 13.2568 95.8188 13.3434 95.4405 13.5166C95.0668 13.6898 94.7501 13.9404 94.4903 14.2686C94.2305 14.5921 94.0323 14.9863 93.8956 15.4512C93.7589 15.9115 93.6905 16.431 93.6905 17.0098C93.6905 17.7845 93.7999 18.4521 94.0186 19.0127C94.2374 19.5687 94.5701 19.9971 95.0167 20.2979C95.4633 20.5941 96.0284 20.7422 96.712 20.7422C97.1358 20.7422 97.5483 20.7012 97.9493 20.6191C98.3503 20.5371 98.7651 20.4255 99.1934 20.2842V21.6787C98.7878 21.8382 98.3777 21.9544 97.963 22.0273C97.5483 22.1003 97.0697 22.1367 96.5274 22.1367C95.5066 22.1367 94.6589 21.9248 93.9845 21.501C93.3145 21.0771 92.8132 20.4801 92.4805 19.71C92.1524 18.9398 91.9884 18.0374 91.9884 17.0029C91.9884 16.2464 92.0932 15.5537 92.3028 14.9248C92.5124 14.2959 92.8178 13.7536 93.2188 13.2979C93.6199 12.8376 94.1143 12.4844 94.7022 12.2383C95.2947 11.9876 95.9714 11.8623 96.7325 11.8623C97.2338 11.8623 97.726 11.9193 98.2091 12.0332C98.6967 12.1426 99.1479 12.2998 99.5626 12.5049L98.9884 13.8584C98.642 13.6943 98.2797 13.5531 97.9014 13.4346C97.5232 13.3161 97.1313 13.2568 96.7257 13.2568ZM101.48 22V12.0059H103.121V20.6055H107.366V22H101.48ZM114.895 22H109.235V12.0059H114.895V13.3867H110.876V16.1006H114.642V17.4746H110.876V20.6123H114.895V22Z" fill="white"/>
</svg>
