<svg width="123" height="33" viewBox="0 0 123 33" fill="none" xmlns="http://www.w3.org/2000/svg">
<rect x="0.5" y="0.5" width="122" height="32" fill="#2322F0"/>
<rect x="0.5" y="0.5" width="122" height="32" stroke="#2322F0"/>
<path fill-rule="evenodd" clip-rule="evenodd" d="M17.46 9.5C13.6152 9.5 10.5 12.6152 10.5 16.46C10.5 20.3048 13.6152 23.42 17.46 23.42C21.3048 23.42 24.42 20.3048 24.42 16.46C24.42 12.6152 21.3048 9.5 17.46 9.5ZM21.5013 17.2458C21.5013 17.431 21.3497 17.5826 21.1645 17.5826H18.5826V20.1645C18.5826 20.3497 18.431 20.5013 18.2458 20.5013H16.6742C16.489 20.5013 16.3374 20.3497 16.3374 20.1645V17.5826H13.7555C13.5703 17.5826 13.4187 17.431 13.4187 17.2458V15.6742C13.4187 15.489 13.5703 15.3374 13.7555 15.3374H16.3374V12.7555C16.3374 12.5703 16.489 12.4187 16.6742 12.4187H18.2458C18.431 12.4187 18.5826 12.5703 18.5826 12.7555V15.3374H21.1645C21.3497 15.3374 21.5013 15.489 21.5013 15.6742V17.2458Z" fill="white"/>
<path d="M36.1757 22L35.1981 19.2246H31.3768L30.3993 22H28.6698L32.3886 11.9648H34.2069L37.9188 22H36.1757ZM34.7743 17.8164L33.8241 15.082C33.7876 14.9635 33.7352 14.7972 33.6669 14.583C33.5985 14.3643 33.5302 14.1432 33.4618 13.9199C33.3934 13.6921 33.3365 13.5007 33.2909 13.3457C33.2453 13.5326 33.1884 13.7422 33.12 13.9746C33.0562 14.2025 32.9924 14.4167 32.9286 14.6172C32.8693 14.8177 32.8238 14.9727 32.7919 15.082L31.8348 17.8164H34.7743ZM47.4924 16.9072C47.4924 18.0329 47.2828 18.974 46.8635 19.7305C46.4442 20.4824 45.8358 21.0498 45.0383 21.4326C44.2408 21.8109 43.2792 22 42.1536 22H39.3782V12.0059H42.4543C43.4888 12.0059 44.3821 12.1927 45.134 12.5664C45.886 12.9355 46.467 13.4847 46.8772 14.2139C47.2873 14.9385 47.4924 15.8363 47.4924 16.9072ZM45.7834 16.9551C45.7834 16.1348 45.6536 15.4603 45.3938 14.9316C45.1386 14.403 44.7603 14.0111 44.259 13.7559C43.7623 13.4961 43.1493 13.3662 42.4202 13.3662H41.0188V20.626H42.1809C43.3886 20.626 44.2909 20.3184 44.8879 19.7031C45.4849 19.0879 45.7834 18.1719 45.7834 16.9551ZM57.9 16.9072C57.9 18.0329 57.6904 18.974 57.2711 19.7305C56.8518 20.4824 56.2434 21.0498 55.4459 21.4326C54.6484 21.8109 53.6868 22 52.5611 22H49.7857V12.0059H52.8619C53.8964 12.0059 54.7896 12.1927 55.5416 12.5664C56.2936 12.9355 56.8746 13.4847 57.2848 14.2139C57.6949 14.9385 57.9 15.8363 57.9 16.9072ZM56.191 16.9551C56.191 16.1348 56.0611 15.4603 55.8014 14.9316C55.5462 14.403 55.1679 14.0111 54.6666 13.7559C54.1699 13.4961 53.5569 13.3662 52.8277 13.3662H51.4264V20.626H52.5885C53.7962 20.626 54.6985 20.3184 55.2955 19.7031C55.8925 19.0879 56.191 18.1719 56.191 16.9551ZM72.0843 16.9072C72.0843 18.0329 71.8747 18.974 71.4554 19.7305C71.0361 20.4824 70.4277 21.0498 69.6302 21.4326C68.8327 21.8109 67.8711 22 66.7454 22H63.97V12.0059H67.0462C68.0807 12.0059 68.9739 12.1927 69.7259 12.5664C70.4779 12.9355 71.0589 13.4847 71.4691 14.2139C71.8792 14.9385 72.0843 15.8363 72.0843 16.9072ZM70.3753 16.9551C70.3753 16.1348 70.2454 15.4603 69.9857 14.9316C69.7305 14.403 69.3522 14.0111 68.8509 13.7559C68.3542 13.4961 67.7412 13.3662 67.012 13.3662H65.6107V20.626H66.7728C67.9805 20.626 68.8828 20.3184 69.4798 19.7031C70.0768 19.0879 70.3753 18.1719 70.3753 16.9551ZM77.1872 12.0059C78.0485 12.0059 78.7595 12.1107 79.32 12.3203C79.8851 12.5299 80.3044 12.849 80.5778 13.2773C80.8558 13.7057 80.9948 14.2503 80.9948 14.9111C80.9948 15.4033 80.9037 15.8226 80.7214 16.1689C80.5391 16.5153 80.2998 16.8024 80.0036 17.0303C79.7074 17.2581 79.3906 17.4404 79.0534 17.5771L81.8903 22H80.0378L77.6247 17.9941H76.0182V22H74.3776V12.0059H77.1872ZM77.0778 13.373H76.0182V16.6406H77.153C77.9141 16.6406 78.4655 16.4993 78.8073 16.2168C79.1537 15.9342 79.3268 15.5173 79.3268 14.9658C79.3268 14.387 79.1423 13.9769 78.7731 13.7354C78.4085 13.4938 77.8434 13.373 77.0778 13.373ZM83.459 22V12.0059H85.0996V22H83.459ZM95.2885 12.0059L91.7953 22H90.059L86.5658 12.0059H88.2475L90.3529 18.2676C90.4167 18.4499 90.4851 18.6709 90.558 18.9307C90.6355 19.1904 90.7061 19.4525 90.7699 19.7168C90.8383 19.9811 90.8907 20.2158 90.9271 20.4209C90.9636 20.2158 91.0137 19.9811 91.0775 19.7168C91.1459 19.4525 91.2165 19.1904 91.2895 18.9307C91.3624 18.6709 91.4307 18.4476 91.4945 18.2607L93.6068 12.0059H95.2885ZM102.401 22H96.741V12.0059H102.401V13.3867H98.3816V16.1006H102.148V17.4746H98.3816V20.6123H102.401V22ZM107.511 12.0059C108.372 12.0059 109.083 12.1107 109.644 12.3203C110.209 12.5299 110.628 12.849 110.901 13.2773C111.179 13.7057 111.318 14.2503 111.318 14.9111C111.318 15.4033 111.227 15.8226 111.045 16.1689C110.863 16.5153 110.623 16.8024 110.327 17.0303C110.031 17.2581 109.714 17.4404 109.377 17.5771L112.214 22H110.361L107.948 17.9941H106.342V22H104.701V12.0059H107.511ZM107.401 13.373H106.342V16.6406H107.477C108.238 16.6406 108.789 16.4993 109.131 16.2168C109.477 15.9342 109.651 15.5173 109.651 14.9658C109.651 14.387 109.466 13.9769 109.097 13.7354C108.732 13.4938 108.167 13.373 107.401 13.373Z" fill="white"/>
</svg>
