<svg width="36" height="36" viewBox="0 0 36 36" fill="none" xmlns="http://www.w3.org/2000/svg">
<rect width="35.83" height="35.9223" rx="4" fill="#FFEED3"/>
<path fill-rule="evenodd" clip-rule="evenodd" d="M17.566 11.7852L9.97813 18.4779C9.92188 18.5286 9.85 18.5522 9.7882 18.5942V25.0158C9.7882 25.3227 10.0368 25.5713 10.3438 25.5713H15.5253L14.2326 23.0432L17.8476 20.821L15.7587 16.6814L20.8993 21.4307L17.2844 23.6529L18.6705 25.5713H24.7882C25.0951 25.5713 25.3437 25.3227 25.3437 25.0158V18.5956C25.2847 18.5554 25.2145 18.5324 25.1611 18.4845L17.566 11.7852ZM27.3816 15.9977L25.3437 14.1981V9.46024C25.3437 9.1533 25.0951 8.90469 24.7882 8.90469H22.5659C22.259 8.90469 22.0104 9.1533 22.0104 9.46024V11.255L18.4948 8.15157C18.2298 7.91337 17.8979 7.79393 17.566 7.79358C17.234 7.79323 16.9028 7.91198 16.6389 8.15018L7.75035 15.9977C7.52223 16.2029 7.50313 16.554 7.70834 16.7824L8.45139 17.6095C8.65625 17.8377 9.00764 17.8567 9.23611 17.6515L17.1986 10.6279C17.4087 10.4429 17.7236 10.4429 17.9337 10.6279L25.8961 17.6512C26.1243 17.8561 26.4757 17.8373 26.6809 17.6092L27.4239 16.7821C27.6288 16.554 27.61 16.2026 27.3816 15.9977Z" fill="#995C00"/>
</svg>
