<svg width="14" height="15" viewBox="0 0 14 15" fill="none" xmlns="http://www.w3.org/2000/svg">
<path fill-rule="evenodd" clip-rule="evenodd" d="M11.3204 14.6052L13.2031 12.5226C13.5314 12.1594 13.5314 11.576 13.2031 11.2128L9.80803 7.45718L13.2031 3.70156C13.5314 3.33836 13.5314 2.75493 13.2031 2.39173L11.3204 0.309141C10.9921 -0.0540562 10.4647 -0.0540562 10.1364 0.309141L6.74128 4.06476L3.3462 0.309141C3.01787 -0.0540562 2.49044 -0.0540562 2.16211 0.309141L0.279451 2.39173C-0.0488795 2.75493 -0.0488795 3.33836 0.279451 3.70156L3.67453 7.45718L0.279451 11.2128C-0.0488795 11.576 -0.0488795 12.1594 0.279451 12.5226L2.16211 14.6052C2.49044 14.9684 3.01787 14.9684 3.3462 14.6052L6.74128 10.8496L10.1364 14.6052C10.4612 14.9646 10.9921 14.9646 11.3204 14.6052Z" fill="#B2002C"/>
<path fill-rule="evenodd" clip-rule="evenodd" d="M11.3204 14.6052L13.2031 12.5226C13.5314 12.1594 13.5314 11.576 13.2031 11.2128L9.80803 7.45718L13.2031 3.70156C13.5314 3.33836 13.5314 2.75493 13.2031 2.39173L11.3204 0.309141C10.9921 -0.0540562 10.4647 -0.0540562 10.1364 0.309141L6.74128 4.06476L3.3462 0.309141C3.01787 -0.0540562 2.49044 -0.0540562 2.16211 0.309141L0.279451 2.39173C-0.0488795 2.75493 -0.0488795 3.33836 0.279451 3.70156L3.67453 7.45718L0.279451 11.2128C-0.0488795 11.576 -0.0488795 12.1594 0.279451 12.5226L2.16211 14.6052C2.49044 14.9684 3.01787 14.9684 3.3462 14.6052L6.74128 10.8496L10.1364 14.6052C10.4612 14.9646 10.9921 14.9646 11.3204 14.6052Z" fill="#B2002C"/>
</svg>
