<svg width="36" height="36" viewBox="0 0 36 36" fill="none" xmlns="http://www.w3.org/2000/svg">
<rect width="35.83" height="35.9223" rx="4" fill="#FFEED3"/>
<path fill-rule="evenodd" clip-rule="evenodd" d="M26.75 18.6072C26.75 15.4724 24.825 12.79 22.0941 11.6689L20.5 14.8572V10.4822C20.5 10.137 20.2202 9.85718 19.875 9.85718H16.125C15.7798 9.85718 15.5 10.137 15.5 10.4822V14.8572L13.9059 11.6689C11.175 12.79 9.25 15.4724 9.25 18.6072V21.1072H26.75V18.6072ZM27.375 22.3572H8.625C8.27982 22.3572 8 22.637 8 22.9822V24.2322C8 24.5774 8.27982 24.8572 8.625 24.8572H27.375C27.7202 24.8572 28 24.5774 28 24.2322V22.9822C28 22.637 27.7202 22.3572 27.375 22.3572Z" fill="#995C00"/>
</svg>
