<svg width="14" height="14" viewBox="0 0 14 14" fill="none" xmlns="http://www.w3.org/2000/svg">
<path fill-rule="evenodd" clip-rule="evenodd" d="M6.09109 5.11125V10.9838C6.09109 11.1639 5.94502 11.31 5.76484 11.31H5.11234C4.93217 11.31 4.78609 11.1639 4.78609 10.9838V5.11125C4.78609 4.93108 4.93217 4.785 5.11234 4.785H5.76484C5.94502 4.785 6.09109 4.93108 6.09109 5.11125ZM8.80984 4.785H8.15734C7.97717 4.785 7.83109 4.93108 7.83109 5.11125V10.9838C7.83109 11.1639 7.97717 11.31 8.15734 11.31H8.80984C8.99002 11.31 9.13609 11.1639 9.13609 10.9838V5.11125C9.13609 4.93108 8.99002 4.785 8.80984 4.785ZM12.3986 2.175C12.759 2.175 13.0511 2.46713 13.0511 2.8275V3.15375C13.0511 3.33392 12.905 3.48 12.7248 3.48H12.1811V12.615C12.1811 13.3357 11.5968 13.92 10.8761 13.92H3.04609C2.32535 13.92 1.74109 13.3357 1.74109 12.615V3.48H1.19734C1.01717 3.48 0.871094 3.33392 0.871094 3.15375V2.8275C0.871094 2.46713 1.16322 2.175 1.52359 2.175H3.54664L4.47151 0.633578C4.70735 0.240504 5.13214 -4.41022e-06 5.59054 0H8.33167C8.79007 -4.41022e-06 9.21486 0.240504 9.45071 0.633578L10.3755 2.175H12.3986ZM5.06854 2.175H8.85367L8.37919 1.3842C8.34971 1.33506 8.29661 1.305 8.23931 1.305H5.68293C5.62563 1.305 5.57253 1.33506 5.54305 1.3842L5.06854 2.175ZM10.8761 3.48H3.04609V12.4519C3.04609 12.542 3.11913 12.615 3.20922 12.615H10.713C10.8031 12.615 10.8761 12.542 10.8761 12.4519V3.48Z" fill="#2322F0"/>
</svg>
