<svg width="110" height="30" viewBox="0 0 110 30" fill="none" xmlns="http://www.w3.org/2000/svg">
<rect width="110" height="30" fill="white"/>
<rect x="0.5" y="0.5" width="109" height="29" stroke="#DDDDDD"/>
<path d="M14.7395 15.6348C14.7395 16.5996 14.5598 17.4062 14.2005 18.0547C13.8411 18.6992 13.3196 19.1855 12.636 19.5137C11.9524 19.8379 11.1282 20 10.1634 20H7.78445V11.4336H10.4212C11.3079 11.4336 12.0735 11.5938 12.718 11.9141C13.3626 12.2305 13.8606 12.7012 14.2122 13.3262C14.5638 13.9473 14.7395 14.7168 14.7395 15.6348ZM13.2747 15.6758C13.2747 14.9727 13.1634 14.3945 12.9407 13.9414C12.722 13.4883 12.3977 13.1523 11.968 12.9336C11.5423 12.7109 11.0169 12.5996 10.3919 12.5996H9.1907V18.8223H10.1868C11.222 18.8223 11.9954 18.5586 12.5071 18.0312C13.0188 17.5039 13.2747 16.7188 13.2747 15.6758ZM21.5568 20H16.7052V11.4336H21.5568V12.6172H18.1115V14.9434H21.34V16.1211H18.1115V18.8105H21.5568V20ZM23.5284 20V11.4336H24.9346V18.8047H28.5733V20H23.5284ZM35.0273 20H30.1757V11.4336H35.0273V12.6172H31.582V14.9434H34.8105V16.1211H31.582V18.8105H35.0273V20ZM39.9695 20H38.5574V12.6289H36.0496V11.4336H42.4715V12.6289H39.9695V20ZM48.7555 20H43.904V11.4336H48.7555V12.6172H45.3102V14.9434H48.5387V16.1211H45.3102V18.8105H48.7555V20ZM56.4545 11.4336C57.56 11.4336 58.3666 11.6602 58.8745 12.1133C59.3823 12.5664 59.6362 13.2012 59.6362 14.0176C59.6362 14.3887 59.5776 14.7422 59.4604 15.0781C59.3471 15.4102 59.1596 15.7051 58.8979 15.9629C58.6362 16.2168 58.2905 16.418 57.8608 16.5664C57.435 16.7148 56.9096 16.7891 56.2846 16.7891H55.3705V20H53.9643V11.4336H56.4545ZM56.3608 12.5996H55.3705V15.6172H56.1381C56.5795 15.6172 56.9545 15.5664 57.2631 15.4648C57.5717 15.3594 57.8061 15.1934 57.9663 14.9668C58.1264 14.7402 58.2065 14.4414 58.2065 14.0703C58.2065 13.5742 58.0561 13.2051 57.7553 12.9629C57.4584 12.7207 56.9936 12.5996 56.3608 12.5996ZM63.8753 11.4336C64.6136 11.4336 65.223 11.5234 65.7034 11.7031C66.1878 11.8828 66.5472 12.1562 66.7816 12.5234C67.0198 12.8906 67.139 13.3574 67.139 13.9238C67.139 14.3457 67.0609 14.7051 66.9046 15.002C66.7484 15.2988 66.5433 15.5449 66.2894 15.7402C66.0355 15.9355 65.764 16.0918 65.4749 16.209L67.9066 20H66.3187L64.2503 16.5664H62.8734V20H61.4671V11.4336H63.8753ZM63.7816 12.6055H62.8734V15.4062H63.846C64.4984 15.4062 64.971 15.2852 65.264 15.043C65.5609 14.8008 65.7093 14.4434 65.7093 13.9707C65.7093 13.4746 65.5511 13.123 65.2347 12.916C64.9222 12.709 64.4378 12.6055 63.7816 12.6055ZM74.1027 20H69.2512V11.4336H74.1027V12.6172H70.6574V14.9434H73.8859V16.1211H70.6574V18.8105H74.1027V20ZM79.7716 20L77.3048 12.8457H77.252C77.2637 13.0059 77.2774 13.2246 77.293 13.502C77.3087 13.7793 77.3223 14.0762 77.3341 14.3926C77.3458 14.709 77.3516 15.0117 77.3516 15.3008V20H76.0743V11.4336H78.0489L80.422 18.2715H80.4571L82.9122 11.4336H84.8809V20H83.5391V15.2305C83.5391 14.9688 83.543 14.6855 83.5509 14.3809C83.5626 14.0762 83.5743 13.7871 83.586 13.5137C83.6016 13.2402 83.6134 13.0215 83.6212 12.8574H83.5743L81.0137 20H79.7716ZM87.2568 20V11.4336H88.663V20H87.2568ZM95.9901 17.668C95.9901 18.1758 95.8651 18.6133 95.6151 18.9805C95.369 19.3477 95.0135 19.6289 94.5487 19.8242C94.0877 20.0195 93.537 20.1172 92.8963 20.1172C92.5838 20.1172 92.285 20.0996 91.9998 20.0645C91.7147 20.0293 91.4452 19.9785 91.1913 19.9121C90.9413 19.8418 90.7127 19.7578 90.5057 19.6602V18.3359C90.8534 18.4883 91.242 18.627 91.6717 18.752C92.1014 18.873 92.5389 18.9336 92.9842 18.9336C93.3475 18.9336 93.6483 18.8867 93.8866 18.793C94.1288 18.6953 94.3084 18.5586 94.4256 18.3828C94.5428 18.2031 94.6014 17.9941 94.6014 17.7559C94.6014 17.502 94.5331 17.2871 94.3963 17.1113C94.2596 16.9355 94.0526 16.7754 93.7752 16.6309C93.5018 16.4824 93.1581 16.3242 92.744 16.1562C92.4627 16.043 92.1932 15.9141 91.9354 15.7695C91.6815 15.625 91.4549 15.4551 91.2557 15.2598C91.0565 15.0645 90.8983 14.834 90.7811 14.5684C90.6678 14.2988 90.6112 13.9824 90.6112 13.6191C90.6112 13.1348 90.7264 12.7207 90.9569 12.377C91.1913 12.0332 91.5194 11.7695 91.9413 11.5859C92.367 11.4023 92.8631 11.3105 93.4295 11.3105C93.8788 11.3105 94.3006 11.3574 94.6952 11.4512C95.0936 11.5449 95.4842 11.6777 95.867 11.8496L95.4217 12.9805C95.0702 12.8359 94.7284 12.7207 94.3963 12.6348C94.0682 12.5488 93.7323 12.5059 93.3885 12.5059C93.0916 12.5059 92.8397 12.5508 92.6327 12.6406C92.4256 12.7305 92.2674 12.8574 92.1581 13.0215C92.0526 13.1816 91.9998 13.373 91.9998 13.5957C91.9998 13.8457 92.0604 14.0566 92.1815 14.2285C92.3065 14.3965 92.4979 14.5508 92.7557 14.6914C93.0174 14.832 93.3534 14.9883 93.7635 15.1602C94.2362 15.3555 94.6366 15.5605 94.9647 15.7754C95.2967 15.9902 95.5506 16.248 95.7264 16.5488C95.9022 16.8457 95.9901 17.2188 95.9901 17.668ZM102.614 20H97.7624V11.4336H102.614V12.6172H99.1687V14.9434H102.397V16.1211H99.1687V18.8105H102.614V20Z" fill="#666666"/>
</svg>
