<svg width="79" height="20" viewBox="0 0 79 20" fill="none" xmlns="http://www.w3.org/2000/svg">
<path fill-rule="evenodd" clip-rule="evenodd" d="M0.177491 7.92381L3.93722 3.97137C4.26632 3.62537 4.785 3.90625 4.785 4.44373V6.52555C8.21629 6.57337 10.9371 7.41056 10.9371 11.3693C10.9371 12.9671 10.0916 14.55 9.15701 15.3775C8.86536 15.6358 8.44971 15.3117 8.55724 14.893C9.52586 11.1219 8.09782 10.1208 4.785 10.0627V12.349C4.785 12.8873 4.26591 13.1669 3.93722 12.8214L0.177491 8.86853C-0.0590034 8.61987 -0.0593238 8.17281 0.177491 7.92381Z" fill="#2322F0"/>
<path d="M16.9785 6.86133C17.6263 6.86133 18.1602 6.93945 18.5801 7.0957C19.0033 7.25195 19.3174 7.48796 19.5225 7.80371C19.7275 8.11947 19.8301 8.51823 19.8301 9C19.8301 9.32552 19.7682 9.61035 19.6445 9.85449C19.5208 10.0986 19.3581 10.3053 19.1562 10.4746C18.9544 10.6439 18.7363 10.7822 18.502 10.8896L20.6016 14H18.9219L17.2178 11.2607H16.4121V14H14.8984V6.86133H16.9785ZM16.8711 8.10156H16.4121V10.0303H16.9004C17.4017 10.0303 17.7598 9.94727 17.9746 9.78125C18.1927 9.61198 18.3018 9.36458 18.3018 9.03906C18.3018 8.70052 18.1846 8.45964 17.9502 8.31641C17.7191 8.17318 17.3594 8.10156 16.8711 8.10156ZM25.6113 14H21.5V6.86133H25.6113V8.10156H23.0137V9.66895H25.4307V10.9092H23.0137V12.75H25.6113V14ZM30.1377 8.01855C29.848 8.01855 29.5908 8.07552 29.3662 8.18945C29.1449 8.30013 28.9577 8.46126 28.8047 8.67285C28.6549 8.88444 28.541 9.13997 28.4629 9.43945C28.3848 9.73893 28.3457 10.0758 28.3457 10.4502C28.3457 10.9548 28.4076 11.3861 28.5312 11.7441C28.6582 12.099 28.8535 12.3708 29.1172 12.5596C29.3809 12.7451 29.721 12.8379 30.1377 12.8379C30.4274 12.8379 30.7171 12.8053 31.0068 12.7402C31.2998 12.6751 31.6172 12.5824 31.959 12.4619V13.7314C31.6432 13.8617 31.3324 13.9544 31.0264 14.0098C30.7204 14.0684 30.377 14.0977 29.9961 14.0977C29.2604 14.0977 28.6549 13.9463 28.1797 13.6436C27.7077 13.3376 27.3577 12.9111 27.1299 12.3643C26.902 11.8141 26.7881 11.1729 26.7881 10.4404C26.7881 9.90007 26.8613 9.40527 27.0078 8.95605C27.1543 8.50684 27.3691 8.11784 27.6523 7.78906C27.9355 7.46029 28.2855 7.20638 28.7021 7.02734C29.1188 6.84831 29.5973 6.75879 30.1377 6.75879C30.4925 6.75879 30.8473 6.80436 31.2021 6.89551C31.5602 6.9834 31.902 7.10547 32.2275 7.26172L31.7393 8.49219C31.4723 8.36523 31.2038 8.25456 30.9336 8.16016C30.6634 8.06576 30.3981 8.01855 30.1377 8.01855ZM37.5938 14H33.4824V6.86133H37.5938V8.10156H34.9961V9.66895H37.4131V10.9092H34.9961V12.75H37.5938V14ZM45.4209 14H43.4971L40.3916 8.59961H40.3477C40.3607 8.82422 40.3721 9.05046 40.3818 9.27832C40.3916 9.50618 40.4014 9.73405 40.4111 9.96191C40.4209 10.1865 40.4307 10.4128 40.4404 10.6406V14H39.0879V6.86133H40.9971L44.0977 12.208H44.1318C44.1253 11.9867 44.1172 11.7669 44.1074 11.5488C44.0977 11.3307 44.0879 11.1126 44.0781 10.8945C44.0716 10.6764 44.0651 10.4583 44.0586 10.2402V6.86133H45.4209V14ZM49.9766 14H48.4629V8.12109H46.5244V6.86133H51.915V8.12109H49.9766V14ZM57.2275 12.0176C57.2275 12.4408 57.125 12.8086 56.9199 13.1211C56.7148 13.4336 56.4154 13.6745 56.0215 13.8438C55.6309 14.013 55.1556 14.0977 54.5957 14.0977C54.3483 14.0977 54.1058 14.0814 53.8682 14.0488C53.6338 14.0163 53.4076 13.9691 53.1895 13.9072C52.9746 13.8421 52.7695 13.7624 52.5742 13.668V12.2617C52.9128 12.4115 53.2643 12.5465 53.6289 12.667C53.9935 12.7874 54.3548 12.8477 54.7129 12.8477C54.9603 12.8477 55.1589 12.8151 55.3086 12.75C55.4616 12.6849 55.5723 12.5954 55.6406 12.4814C55.709 12.3675 55.7432 12.2373 55.7432 12.0908C55.7432 11.9118 55.6829 11.7588 55.5625 11.6318C55.4421 11.5049 55.276 11.3861 55.0645 11.2754C54.8561 11.1647 54.6201 11.0459 54.3564 10.9189C54.1904 10.8408 54.0098 10.7464 53.8145 10.6357C53.6191 10.5218 53.4336 10.3835 53.2578 10.2207C53.082 10.0579 52.9372 9.861 52.8232 9.62988C52.7126 9.39551 52.6572 9.11556 52.6572 8.79004C52.6572 8.36361 52.7549 7.99902 52.9502 7.69629C53.1455 7.39355 53.4238 7.16243 53.7852 7.00293C54.1497 6.84017 54.5794 6.75879 55.0742 6.75879C55.4453 6.75879 55.7985 6.80273 56.1338 6.89062C56.4723 6.97526 56.8255 7.09896 57.1934 7.26172L56.7051 8.43848C56.3763 8.30501 56.0817 8.20247 55.8213 8.13086C55.5609 8.05599 55.2956 8.01855 55.0254 8.01855C54.8366 8.01855 54.6755 8.04948 54.542 8.11133C54.4085 8.16992 54.3076 8.25456 54.2393 8.36523C54.1709 8.47266 54.1367 8.59798 54.1367 8.74121C54.1367 8.91048 54.1855 9.05371 54.2832 9.1709C54.3841 9.28483 54.5339 9.39551 54.7324 9.50293C54.9342 9.61035 55.1849 9.73568 55.4844 9.87891C55.849 10.0514 56.1598 10.2321 56.417 10.4209C56.6774 10.6064 56.8776 10.8262 57.0176 11.0801C57.1576 11.3307 57.2275 11.6432 57.2275 12.0176Z" fill="#2322F0"/>
</svg>
