<svg width="36" height="36" viewBox="0 0 36 36" fill="none" xmlns="http://www.w3.org/2000/svg">
<rect width="35.83" height="35.9223" rx="4" fill="#FFEED3"/>
<path fill-rule="evenodd" clip-rule="evenodd" d="M27.1407 23.4555L22.5669 18.8818C21.6646 17.9795 20.3171 17.8037 19.2313 18.3388L15.0676 14.1752V11.7496L10.0681 8L7.56836 10.4998L11.318 15.4993H13.7435L17.9072 19.6629C17.376 20.7488 17.5479 22.0963 18.4501 22.9985L23.0239 27.5723C23.5941 28.1426 24.5159 28.1426 25.0823 27.5723L27.1407 25.5139C27.707 24.9437 27.707 24.0219 27.1407 23.4555ZM20.5241 16.7882C21.6295 16.7882 22.6684 17.2178 23.4496 17.999L24.2074 18.7568C24.8245 18.4873 25.4104 18.1123 25.9181 17.6045C27.3672 16.1555 27.8593 14.1166 27.3985 12.2652C27.3125 11.9137 26.8712 11.7926 26.6134 12.0504L23.7074 14.9564L21.0553 14.515L20.614 11.8629L23.5199 8.95694C23.7777 8.69915 23.6527 8.25779 23.2973 8.16795C21.4459 7.71097 19.407 8.20311 17.9619 9.64828C16.8487 10.7614 16.3253 12.2301 16.3527 13.6948L19.5594 16.9015C19.8758 16.8273 20.2038 16.7882 20.5241 16.7882ZM16.4659 19.991L14.2513 17.7764L8.29876 23.7328C7.32229 24.7093 7.32229 26.2912 8.29876 27.2676C9.27522 28.2441 10.8571 28.2441 11.8336 27.2676L16.6612 22.44C16.3644 21.6627 16.2745 20.8152 16.4659 19.991ZM10.0681 26.4357C9.55254 26.4357 9.13071 26.0139 9.13071 25.4983C9.13071 24.9788 9.54863 24.5609 10.0681 24.5609C10.5876 24.5609 11.0055 24.9788 11.0055 25.4983C11.0055 26.0139 10.5876 26.4357 10.0681 26.4357Z" fill="#995C00"/>
</svg>
