<svg width="189" height="28" viewBox="0 0 189 28" fill="none" xmlns="http://www.w3.org/2000/svg">
<path d="M28.1963 19L27.0537 16.0547H23.334L22.1978 19H21.106L24.7368 9.68164H25.708L29.3135 19H28.1963ZM26.73 15.0962L25.6445 12.1699C25.6191 12.0938 25.5768 11.9689 25.5176 11.7954C25.4626 11.6219 25.4054 11.4421 25.3462 11.2559C25.2869 11.0697 25.2383 10.9194 25.2002 10.8052C25.1579 10.9787 25.1113 11.1522 25.0605 11.3257C25.014 11.495 24.9674 11.6536 24.9209 11.8018C24.8743 11.9456 24.8341 12.0684 24.8003 12.1699L23.6958 15.0962H26.73ZM32.9189 19.127C32.0387 19.127 31.3405 18.8265 30.8242 18.2256C30.3122 17.6247 30.0562 16.7318 30.0562 15.5469C30.0562 14.3493 30.3185 13.4458 30.8433 12.8364C31.368 12.2228 32.0662 11.916 32.938 11.916C33.3062 11.916 33.6278 11.9647 33.9028 12.062C34.1779 12.1593 34.4149 12.2905 34.6138 12.4556C34.8127 12.6164 34.9798 12.8005 35.1152 13.0078H35.1914C35.1745 12.8766 35.1576 12.6968 35.1406 12.4683C35.1237 12.2397 35.1152 12.0535 35.1152 11.9097V9.12305H36.1689V19H35.3184L35.1597 18.0098H35.1152C34.984 18.2171 34.8169 18.4054 34.6138 18.5747C34.4149 18.744 34.1758 18.8794 33.8965 18.981C33.6214 19.0783 33.2956 19.127 32.9189 19.127ZM33.084 18.251C33.8288 18.251 34.3556 18.0394 34.6646 17.6162C34.9735 17.193 35.1279 16.5646 35.1279 15.731V15.5405C35.1279 14.6561 34.9798 13.9769 34.6836 13.5029C34.3916 13.029 33.8584 12.792 33.084 12.792C32.4365 12.792 31.952 13.0417 31.6304 13.541C31.3088 14.0361 31.1479 14.7132 31.1479 15.5723C31.1479 16.4271 31.3066 17.0872 31.624 17.5527C31.9456 18.0182 32.4323 18.251 33.084 18.251ZM40.8789 19.127C39.9987 19.127 39.3005 18.8265 38.7842 18.2256C38.2721 17.6247 38.0161 16.7318 38.0161 15.5469C38.0161 14.3493 38.2785 13.4458 38.8032 12.8364C39.328 12.2228 40.0262 11.916 40.8979 11.916C41.2661 11.916 41.5877 11.9647 41.8628 12.062C42.1379 12.1593 42.3748 12.2905 42.5737 12.4556C42.7726 12.6164 42.9398 12.8005 43.0752 13.0078H43.1514C43.1344 12.8766 43.1175 12.6968 43.1006 12.4683C43.0837 12.2397 43.0752 12.0535 43.0752 11.9097V9.12305H44.1289V19H43.2783L43.1196 18.0098H43.0752C42.944 18.2171 42.7769 18.4054 42.5737 18.5747C42.3748 18.744 42.1357 18.8794 41.8564 18.981C41.5814 19.0783 41.2555 19.127 40.8789 19.127ZM41.0439 18.251C41.7887 18.251 42.3156 18.0394 42.6245 17.6162C42.9334 17.193 43.0879 16.5646 43.0879 15.731V15.5405C43.0879 14.6561 42.9398 13.9769 42.6436 13.5029C42.3516 13.029 41.8184 12.792 41.0439 12.792C40.3965 12.792 39.9119 13.0417 39.5903 13.541C39.2687 14.0361 39.1079 14.7132 39.1079 15.5723C39.1079 16.4271 39.2666 17.0872 39.584 17.5527C39.9056 18.0182 40.3923 18.251 41.0439 18.251ZM53.8662 10.5386C53.3542 10.5386 52.8929 10.6274 52.4824 10.8052C52.0762 10.9787 51.7292 11.2326 51.4414 11.5669C51.1579 11.897 50.9399 12.2969 50.7876 12.7666C50.6353 13.2363 50.5591 13.7653 50.5591 14.3535C50.5591 15.1322 50.6797 15.8092 50.9209 16.3848C51.1663 16.9561 51.5303 17.3983 52.0127 17.7114C52.4993 18.0246 53.1066 18.1812 53.8345 18.1812C54.2492 18.1812 54.6385 18.1473 55.0024 18.0796C55.3706 18.0076 55.7282 17.9188 56.0752 17.813V18.7524C55.7367 18.8794 55.3812 18.9725 55.0088 19.0317C54.6364 19.0952 54.1942 19.127 53.6821 19.127C52.7384 19.127 51.9492 18.9323 51.3145 18.543C50.6839 18.1494 50.21 17.5951 49.8926 16.8799C49.5794 16.1647 49.4229 15.3205 49.4229 14.3472C49.4229 13.6447 49.5202 13.0036 49.7148 12.4238C49.9137 11.8398 50.2015 11.3363 50.5781 10.9131C50.959 10.4899 51.4245 10.1641 51.9746 9.93555C52.529 9.7028 53.1637 9.58643 53.8789 9.58643C54.3486 9.58643 54.8014 9.63298 55.2373 9.72607C55.6732 9.81917 56.0667 9.95247 56.418 10.126L55.9863 11.04C55.6901 10.9046 55.3643 10.7882 55.0088 10.6909C54.6576 10.5894 54.2767 10.5386 53.8662 10.5386ZM63.9272 15.5088C63.9272 16.0801 63.8532 16.59 63.7051 17.0386C63.557 17.4871 63.3433 17.8659 63.064 18.1748C62.7847 18.4837 62.4461 18.7207 62.0483 18.8857C61.6548 19.0465 61.2083 19.127 60.709 19.127C60.2435 19.127 59.8161 19.0465 59.4268 18.8857C59.0417 18.7207 58.7074 18.4837 58.4238 18.1748C58.1445 17.8659 57.9266 17.4871 57.77 17.0386C57.6177 16.59 57.5415 16.0801 57.5415 15.5088C57.5415 14.7471 57.6706 14.0996 57.9287 13.5664C58.1868 13.029 58.555 12.6206 59.0332 12.3413C59.5156 12.0578 60.089 11.916 60.7534 11.916C61.3882 11.916 61.9425 12.0578 62.4165 12.3413C62.8947 12.6248 63.265 13.0353 63.5273 13.5728C63.7939 14.106 63.9272 14.7513 63.9272 15.5088ZM58.6333 15.5088C58.6333 16.0674 58.7074 16.5519 58.8555 16.9624C59.0036 17.3729 59.2321 17.6903 59.541 17.9146C59.8499 18.1388 60.2477 18.251 60.7344 18.251C61.2168 18.251 61.6125 18.1388 61.9214 17.9146C62.2345 17.6903 62.4652 17.3729 62.6133 16.9624C62.7614 16.5519 62.8354 16.0674 62.8354 15.5088C62.8354 14.9544 62.7614 14.4762 62.6133 14.0742C62.4652 13.668 62.2367 13.3548 61.9277 13.1348C61.6188 12.9147 61.2189 12.8047 60.728 12.8047C60.0044 12.8047 59.4733 13.0438 59.1348 13.522C58.8005 14.0002 58.6333 14.6624 58.6333 15.5088ZM67.2788 19L64.6382 12.043H65.7681L67.2979 16.2515C67.4036 16.5392 67.5116 16.8566 67.6216 17.2036C67.7316 17.5506 67.8078 17.8299 67.8501 18.0415H67.8945C67.9453 17.8299 68.0299 17.5506 68.1484 17.2036C68.2669 16.8524 68.3748 16.535 68.4722 16.2515L70.002 12.043H71.1318L68.4849 19H67.2788ZM74.9277 11.916C75.5202 11.916 76.028 12.0472 76.4512 12.3096C76.8743 12.5719 77.1981 12.9401 77.4224 13.4141C77.6466 13.8838 77.7588 14.4339 77.7588 15.0645V15.7183H72.9536C72.9663 16.535 73.1694 17.1571 73.563 17.5845C73.9565 18.0119 74.5109 18.2256 75.2261 18.2256C75.6662 18.2256 76.0555 18.1854 76.394 18.105C76.7326 18.0246 77.0838 17.9061 77.4478 17.7495V18.6763C77.0965 18.8328 76.7474 18.9471 76.4004 19.019C76.0576 19.091 75.6514 19.127 75.1816 19.127C74.513 19.127 73.929 18.9915 73.4297 18.7207C72.9346 18.4456 72.5495 18.0436 72.2744 17.5146C71.9993 16.9857 71.8618 16.3382 71.8618 15.5723C71.8618 14.8232 71.9867 14.1758 72.2363 13.6299C72.4902 13.0798 72.8457 12.6566 73.3027 12.3604C73.764 12.0641 74.3057 11.916 74.9277 11.916ZM74.915 12.7793C74.3522 12.7793 73.9036 12.9634 73.5693 13.3315C73.235 13.6997 73.0361 14.2139 72.9727 14.874H76.6543C76.6501 14.4593 76.5845 14.0954 76.4575 13.7822C76.3348 13.4648 76.1465 13.2194 75.8926 13.0459C75.6387 12.8682 75.3128 12.7793 74.915 12.7793ZM82.71 11.916C82.8496 11.916 82.9956 11.9245 83.1479 11.9414C83.3003 11.9541 83.4357 11.9731 83.5542 11.9985L83.4209 12.9761C83.3066 12.9465 83.1797 12.9232 83.04 12.9062C82.9004 12.8893 82.7692 12.8809 82.6465 12.8809C82.3672 12.8809 82.1027 12.938 81.853 13.0522C81.6076 13.1623 81.3918 13.3231 81.2056 13.5347C81.0194 13.742 80.8734 13.9938 80.7676 14.29C80.6618 14.582 80.6089 14.9079 80.6089 15.2676V19H79.5488V12.043H80.4248L80.5391 13.3252H80.5835C80.7274 13.0671 80.9009 12.8322 81.104 12.6206C81.3071 12.4048 81.542 12.2334 81.8086 12.1064C82.0794 11.9795 82.3799 11.916 82.71 11.916ZM87.4707 11.9287C88.3001 11.9287 88.9159 12.1149 89.3179 12.4873C89.7199 12.8597 89.9209 13.4543 89.9209 14.271V19H89.1528L88.9497 17.9717H88.8989C88.7043 18.2256 88.5011 18.4393 88.2896 18.6128C88.078 18.7821 87.8325 18.9111 87.5532 19C87.2782 19.0846 86.9396 19.127 86.5376 19.127C86.1144 19.127 85.7378 19.0529 85.4077 18.9048C85.0819 18.7567 84.8237 18.5324 84.6333 18.2319C84.4471 17.9315 84.354 17.5506 84.354 17.0894C84.354 16.3953 84.6291 15.8621 85.1792 15.4897C85.7293 15.1174 86.5672 14.9142 87.6929 14.8804L88.8926 14.8296V14.4043C88.8926 13.8034 88.7635 13.3823 88.5054 13.1411C88.2472 12.8999 87.8833 12.7793 87.4136 12.7793C87.0496 12.7793 86.7026 12.8322 86.3726 12.938C86.0425 13.0438 85.7293 13.1686 85.4331 13.3125L85.1094 12.5127C85.4225 12.3519 85.7822 12.2144 86.1885 12.1001C86.5947 11.9858 87.0221 11.9287 87.4707 11.9287ZM88.8799 15.5723L87.8198 15.6167C86.9523 15.6506 86.3408 15.7923 85.9854 16.042C85.6299 16.2917 85.4521 16.645 85.4521 17.1021C85.4521 17.4998 85.5728 17.7939 85.814 17.9844C86.0552 18.1748 86.3747 18.27 86.7725 18.27C87.3903 18.27 87.896 18.0986 88.2896 17.7559C88.6831 17.4131 88.8799 16.8989 88.8799 16.2134V15.5723ZM94.0342 22.123C93.1201 22.123 92.4155 21.9517 91.9204 21.6089C91.4253 21.2703 91.1777 20.7943 91.1777 20.1807C91.1777 19.7448 91.3153 19.3724 91.5903 19.0635C91.8696 18.7546 92.2547 18.5493 92.7456 18.4478C92.5636 18.3631 92.4071 18.2362 92.2759 18.0669C92.1489 17.8976 92.0854 17.703 92.0854 17.4829C92.0854 17.229 92.1553 17.0068 92.2949 16.8164C92.4388 16.6217 92.6567 16.4355 92.9487 16.2578C92.5848 16.1097 92.2886 15.86 92.0601 15.5088C91.8358 15.1533 91.7236 14.7407 91.7236 14.271C91.7236 13.7716 91.8273 13.3464 92.0347 12.9951C92.242 12.6396 92.5425 12.3688 92.936 12.1826C93.3296 11.9964 93.8057 11.9033 94.3643 11.9033C94.487 11.9033 94.6097 11.9097 94.7324 11.9224C94.8594 11.9308 94.98 11.9456 95.0942 11.9668C95.2085 11.9837 95.3079 12.0049 95.3926 12.0303H97.7793V12.7095L96.4971 12.8682C96.624 13.0332 96.7298 13.2321 96.8145 13.4648C96.8991 13.6976 96.9414 13.9557 96.9414 14.2393C96.9414 14.9333 96.7065 15.4855 96.2368 15.896C95.7671 16.3022 95.1217 16.5054 94.3008 16.5054C94.1061 16.5054 93.9072 16.4884 93.7041 16.4546C93.4967 16.5688 93.3381 16.6958 93.228 16.8354C93.1222 16.9751 93.0693 17.1359 93.0693 17.3179C93.0693 17.4533 93.1095 17.5612 93.1899 17.6416C93.2746 17.722 93.3952 17.7812 93.5518 17.8193C93.7083 17.8532 93.8966 17.8701 94.1167 17.8701H95.3418C96.0993 17.8701 96.679 18.0288 97.0811 18.3462C97.4873 18.6636 97.6904 19.127 97.6904 19.7363C97.6904 20.5065 97.3773 21.0968 96.751 21.5073C96.1247 21.9178 95.2191 22.123 94.0342 22.123ZM94.0659 21.2979C94.6414 21.2979 95.1175 21.2386 95.4941 21.1201C95.875 21.0059 96.1585 20.8387 96.3447 20.6187C96.5352 20.4028 96.6304 20.1447 96.6304 19.8442C96.6304 19.5649 96.5669 19.3534 96.4399 19.2095C96.313 19.0698 96.1268 18.9767 95.8813 18.9302C95.6359 18.8794 95.3354 18.854 94.98 18.854H93.7739C93.4608 18.854 93.1878 18.9027 92.9551 19C92.7223 19.0973 92.5425 19.2412 92.4155 19.4316C92.2928 19.6221 92.2314 19.859 92.2314 20.1426C92.2314 20.5192 92.3901 20.8049 92.7075 20.9995C93.0249 21.1984 93.4777 21.2979 94.0659 21.2979ZM94.3389 15.7373C94.8424 15.7373 95.2212 15.6104 95.4751 15.3564C95.729 15.1025 95.856 14.7323 95.856 14.2456C95.856 13.7251 95.7269 13.3358 95.4688 13.0776C95.2106 12.8153 94.8298 12.6841 94.3262 12.6841C93.8438 12.6841 93.4714 12.8195 93.209 13.0903C92.9508 13.3569 92.8218 13.7484 92.8218 14.2646C92.8218 14.7386 92.953 15.1025 93.2153 15.3564C93.4777 15.6104 93.8522 15.7373 94.3389 15.7373ZM101.829 11.916C102.422 11.916 102.929 12.0472 103.353 12.3096C103.776 12.5719 104.099 12.9401 104.324 13.4141C104.548 13.8838 104.66 14.4339 104.66 15.0645V15.7183H99.855C99.8677 16.535 100.071 17.1571 100.464 17.5845C100.858 18.0119 101.412 18.2256 102.127 18.2256C102.568 18.2256 102.957 18.1854 103.295 18.105C103.634 18.0246 103.985 17.9061 104.349 17.7495V18.6763C103.998 18.8328 103.649 18.9471 103.302 19.019C102.959 19.091 102.553 19.127 102.083 19.127C101.414 19.127 100.83 18.9915 100.331 18.7207C99.8359 18.4456 99.4508 18.0436 99.1758 17.5146C98.9007 16.9857 98.7632 16.3382 98.7632 15.5723C98.7632 14.8232 98.888 14.1758 99.1377 13.6299C99.3916 13.0798 99.7471 12.6566 100.204 12.3604C100.665 12.0641 101.207 11.916 101.829 11.916ZM101.816 12.7793C101.254 12.7793 100.805 12.9634 100.471 13.3315C100.136 13.6997 99.9375 14.2139 99.874 14.874H103.556C103.551 14.4593 103.486 14.0954 103.359 13.7822C103.236 13.4648 103.048 13.2194 102.794 13.0459C102.54 12.8682 102.214 12.7793 101.816 12.7793Z" fill="#2322F0"/>
<path fill-rule="evenodd" clip-rule="evenodd" d="M7.99448 6.13867C3.57817 6.13867 0 9.78136 0 14.2773C0 18.7732 3.57817 22.4159 7.99448 22.4159C12.4108 22.4159 15.989 18.7732 15.989 14.2773C15.989 9.78136 12.4108 6.13867 7.99448 6.13867ZM12.6364 15.1962C12.6364 15.4127 12.4624 15.59 12.2496 15.59H9.28391V18.6091C9.28391 18.8257 9.10984 19.0029 8.89708 19.0029H7.09188C6.87912 19.0029 6.70505 18.8257 6.70505 18.6091V15.59H3.73935C3.5266 15.59 3.35252 15.4127 3.35252 15.1962V13.3584C3.35252 13.1418 3.5266 12.9646 3.73935 12.9646H6.70505V9.94544C6.70505 9.72885 6.87912 9.55164 7.09188 9.55164H8.89708C9.10984 9.55164 9.28391 9.72885 9.28391 9.94544V12.9646H12.2496C12.4624 12.9646 12.6364 13.1418 12.6364 13.3584V15.1962Z" fill="#2322F0"/>
</svg>
