<svg width="75" height="37" viewBox="0 0 75 37" fill="none" xmlns="http://www.w3.org/2000/svg">
<rect x="0.5" y="0.5" width="74" height="36" stroke="#2322F0"/>
<path d="M16.0201 15.2568C15.5416 15.2568 15.1132 15.3434 14.735 15.5166C14.3613 15.6898 14.0445 15.9404 13.7848 16.2686C13.525 16.5921 13.3268 16.9863 13.19 17.4512C13.0533 17.9115 12.985 18.431 12.985 19.0098C12.985 19.7845 13.0943 20.4521 13.3131 21.0127C13.5318 21.5687 13.8645 21.9971 14.3111 22.2979C14.7577 22.5941 15.3229 22.7422 16.0064 22.7422C16.4303 22.7422 16.8427 22.7012 17.2437 22.6191C17.6448 22.5371 18.0595 22.4255 18.4879 22.2842V23.6787C18.0823 23.8382 17.6721 23.9544 17.2574 24.0273C16.8427 24.1003 16.3642 24.1367 15.8219 24.1367C14.801 24.1367 13.9534 23.9248 13.2789 23.501C12.609 23.0771 12.1077 22.4801 11.775 21.71C11.4469 20.9398 11.2828 20.0374 11.2828 19.0029C11.2828 18.2464 11.3876 17.5537 11.5973 16.9248C11.8069 16.2959 12.1122 15.7536 12.5133 15.2979C12.9143 14.8376 13.4088 14.4844 13.9967 14.2383C14.5891 13.9876 15.2659 13.8623 16.027 13.8623C16.5283 13.8623 17.0204 13.9193 17.5035 14.0332C17.9911 14.1426 18.4423 14.2998 18.857 14.5049L18.2828 15.8584C17.9365 15.6943 17.5742 15.5531 17.1959 15.4346C16.8176 15.3161 16.4257 15.2568 16.0201 15.2568ZM26.9677 24L25.9902 21.2246H22.1689L21.1914 24H19.4619L23.1806 13.9648H24.999L28.7109 24H26.9677ZM25.5664 19.8164L24.6162 17.082C24.5797 16.9635 24.5273 16.7972 24.4589 16.583C24.3906 16.3643 24.3222 16.1432 24.2539 15.9199C24.1855 15.6921 24.1285 15.5007 24.083 15.3457C24.0374 15.5326 23.9804 15.7422 23.9121 15.9746C23.8483 16.2025 23.7845 16.4167 23.7207 16.6172C23.6614 16.8177 23.6158 16.9727 23.5839 17.082L22.6269 19.8164H25.5664ZM38.5101 24H36.4935L31.5989 16.0225H31.5374C31.5557 16.2913 31.5716 16.5762 31.5853 16.877C31.6035 17.1777 31.6172 17.4876 31.6263 17.8066C31.64 18.1257 31.6514 18.4492 31.6605 18.7773V24H30.1702V14.0059H32.1732L37.0609 21.9287H37.1087C37.0996 21.6963 37.0882 21.4297 37.0745 21.1289C37.0609 20.8281 37.0472 20.5182 37.0335 20.1992C37.0244 19.8757 37.0176 19.5635 37.013 19.2627V14.0059H38.5101V24ZM45.5339 15.2568C45.0554 15.2568 44.627 15.3434 44.2487 15.5166C43.875 15.6898 43.5583 15.9404 43.2985 16.2686C43.0387 16.5921 42.8405 16.9863 42.7038 17.4512C42.5671 17.9115 42.4987 18.431 42.4987 19.0098C42.4987 19.7845 42.6081 20.4521 42.8268 21.0127C43.0456 21.5687 43.3783 21.9971 43.8249 22.2979C44.2715 22.5941 44.8366 22.7422 45.5202 22.7422C45.944 22.7422 46.3565 22.7012 46.7575 22.6191C47.1585 22.5371 47.5733 22.4255 48.0016 22.2842V23.6787C47.596 23.8382 47.1859 23.9544 46.7712 24.0273C46.3565 24.1003 45.8779 24.1367 45.3356 24.1367C44.3148 24.1367 43.4671 23.9248 42.7927 23.501C42.1227 23.0771 41.6214 22.4801 41.2887 21.71C40.9606 20.9398 40.7966 20.0374 40.7966 19.0029C40.7966 18.2464 40.9014 17.5537 41.111 16.9248C41.3207 16.2959 41.626 15.7536 42.027 15.2979C42.4281 14.8376 42.9225 14.4844 43.5104 14.2383C44.1029 13.9876 44.7796 13.8623 45.5407 13.8623C46.042 13.8623 46.5342 13.9193 47.0173 14.0332C47.5049 14.1426 47.9561 14.2998 48.3708 14.5049L47.7966 15.8584C47.4502 15.6943 47.0879 15.5531 46.7096 15.4346C46.3314 15.3161 45.9395 15.2568 45.5339 15.2568ZM55.9483 24H50.2881V14.0059H55.9483V15.3867H51.9287V18.1006H55.6954V19.4746H51.9287V22.6123H55.9483V24ZM58.2484 24V14.0059H59.8891V22.6055H64.1342V24H58.2484Z" fill="#2322F0"/>
</svg>
