<svg width="105" height="28" viewBox="0 0 105 28" fill="none" xmlns="http://www.w3.org/2000/svg">
<rect x="0.5" y="0.5" width="104" height="27" fill="white" stroke="#B2002C"/>
<path d="M24.4546 13.9985C24.4546 14.883 24.2899 15.6224 23.9604 16.2168C23.631 16.8076 23.153 17.2534 22.5263 17.5542C21.8997 17.8514 21.1442 18 20.2597 18H18.0791V10.1475H20.4961C21.3089 10.1475 22.0107 10.2943 22.6015 10.5879C23.1924 10.8779 23.6489 11.3094 23.9712 11.8823C24.2934 12.4517 24.4546 13.1571 24.4546 13.9985ZM23.1118 14.0361C23.1118 13.3916 23.0097 12.8617 22.8056 12.4463C22.6051 12.0309 22.3079 11.723 21.914 11.5225C21.5237 11.3184 21.0421 11.2163 20.4692 11.2163H19.3681V16.9204H20.2812C21.2301 16.9204 21.9391 16.6787 22.4082 16.1953C22.8773 15.7119 23.1118 14.9922 23.1118 14.0361ZM30.2637 18H25.8165V10.1475H30.2637V11.2324H27.1055V13.3647H30.065V14.4443H27.1055V16.9097H30.2637V18ZM31.631 18V10.1475H32.9201V16.9043H36.2555V18H31.631ZM41.7317 18H37.2844V10.1475H41.7317V11.2324H38.5735V13.3647H41.5329V14.4443H38.5735V16.9097H41.7317V18ZM45.8221 18H44.5276V11.2432H42.2288V10.1475H48.1155V11.2432H45.8221V18ZM53.4359 18H48.9887V10.1475H53.4359V11.2324H50.2777V13.3647H53.2372V14.4443H50.2777V16.9097H53.4359V18ZM59.6133 10.1475C60.6267 10.1475 61.3661 10.3551 61.8316 10.7705C62.2971 11.1859 62.5298 11.7677 62.5298 12.5161C62.5298 12.8563 62.4761 13.1803 62.3687 13.4883C62.2648 13.7926 62.093 14.063 61.8531 14.2993C61.6132 14.5321 61.2963 14.7165 60.9024 14.8525C60.5121 14.9886 60.0305 15.0566 59.4576 15.0566H58.6197V18H57.3306V10.1475H59.6133ZM59.5274 11.2163H58.6197V13.9824H59.3233C59.7279 13.9824 60.0717 13.9359 60.3545 13.8428C60.6374 13.7461 60.8523 13.5939 60.9991 13.3862C61.1459 13.1785 61.2193 12.9046 61.2193 12.5645C61.2193 12.1097 61.0814 11.7713 60.8057 11.5493C60.5336 11.3273 60.1075 11.2163 59.5274 11.2163ZM65.9757 10.1475C66.6525 10.1475 67.2111 10.2298 67.6515 10.3945C68.0955 10.5592 68.4249 10.8099 68.6398 11.1465C68.8582 11.4831 68.9674 11.911 68.9674 12.4302C68.9674 12.8169 68.8958 13.1463 68.7526 13.4185C68.6093 13.6906 68.4213 13.9162 68.1886 14.0952C67.9558 14.2743 67.707 14.4175 67.442 14.5249L69.671 18H68.2155L66.3195 14.8525H65.0572V18H63.7682V10.1475H65.9757ZM65.8898 11.2217H65.0572V13.7891H65.9488C66.5468 13.7891 66.9801 13.6781 67.2487 13.4561C67.5208 13.234 67.6569 12.9064 67.6569 12.4731C67.6569 12.0184 67.5118 11.6961 67.2218 11.5063C66.9353 11.3166 66.4913 11.2217 65.8898 11.2217ZM74.9108 18H70.4636V10.1475H74.9108V11.2324H71.7526V13.3647H74.7121V14.4443H71.7526V16.9097H74.9108V18ZM79.6673 18L77.406 11.4419H77.3577C77.3684 11.5887 77.381 11.7892 77.3953 12.0435C77.4096 12.2977 77.4221 12.5698 77.4329 12.8599C77.4436 13.1499 77.449 13.4274 77.449 13.6924V18H76.2781V10.1475H78.0882L80.2635 16.4155H80.2957L82.5462 10.1475H84.3509V18H83.1209V13.6279C83.1209 13.388 83.1245 13.1284 83.1316 12.8491C83.1424 12.5698 83.1531 12.3049 83.1638 12.0542C83.1782 11.8035 83.1889 11.603 83.1961 11.4526H83.1531L80.8059 18H79.6673ZM86.0887 18V10.1475H87.3778V18H86.0887ZM93.6542 15.8623C93.6542 16.3278 93.5397 16.7288 93.3105 17.0654C93.0849 17.402 92.7591 17.6598 92.3329 17.8389C91.9104 18.0179 91.4055 18.1074 90.8183 18.1074C90.5318 18.1074 90.2579 18.0913 89.9965 18.0591C89.7351 18.0269 89.4881 17.9803 89.2553 17.9194C89.0261 17.855 88.8167 17.778 88.6269 17.6885V16.4746C88.9456 16.6143 89.3019 16.7414 89.6957 16.856C90.0896 16.967 90.4907 17.0225 90.8989 17.0225C91.2319 17.0225 91.5076 16.9795 91.726 16.8936C91.948 16.804 92.1127 16.6787 92.2202 16.5176C92.3276 16.3529 92.3813 16.1613 92.3813 15.9429C92.3813 15.7101 92.3186 15.5132 92.1933 15.3521C92.068 15.1909 91.8782 15.0441 91.624 14.9116C91.3733 14.7756 91.0582 14.6305 90.6786 14.4766C90.4208 14.3727 90.1738 14.2546 89.9374 14.1221C89.7047 13.9896 89.497 13.8338 89.3144 13.6548C89.1318 13.4757 88.9868 13.2645 88.8793 13.021C88.7755 12.7739 88.7236 12.4839 88.7236 12.1509C88.7236 11.7069 88.8292 11.3273 89.0405 11.0122C89.2553 10.6971 89.5561 10.4554 89.9428 10.2871C90.3331 10.1188 90.7879 10.0347 91.3071 10.0347C91.7189 10.0347 92.1056 10.0776 92.4672 10.1636C92.8325 10.2495 93.1905 10.3713 93.5414 10.5288L93.1332 11.5654C92.811 11.4329 92.4977 11.3273 92.1933 11.2485C91.8925 11.1698 91.5846 11.1304 91.2695 11.1304C90.9973 11.1304 90.7664 11.1715 90.5766 11.2539C90.3868 11.3363 90.2418 11.4526 90.1415 11.603C90.0449 11.7498 89.9965 11.9253 89.9965 12.1294C89.9965 12.3586 90.052 12.5519 90.163 12.7095C90.2776 12.8634 90.4531 13.0049 90.6894 13.1338C90.9293 13.2627 91.2372 13.4059 91.6132 13.5635C92.0465 13.7425 92.4135 13.9305 92.7143 14.1274C93.0187 14.3244 93.2514 14.5607 93.4125 14.8364C93.5737 15.1086 93.6542 15.4505 93.6542 15.8623ZM99.2861 18H94.8389V10.1475H99.2861V11.2324H96.1279V13.3647H99.0874V14.4443H96.1279V16.9097H99.2861V18Z" fill="#B2002C"/>
<path fill-rule="evenodd" clip-rule="evenodd" d="M5.62158 10.6312V10.0875C5.62158 9.82922 5.82937 9.62143 6.08765 9.62143H8.26265L8.4452 9.25828C8.52288 9.09904 8.68406 9 8.86078 9H11.0804C11.2572 9 11.4183 9.09904 11.498 9.25828L11.6805 9.62143H13.8555C14.1138 9.62143 14.3216 9.82922 14.3216 10.0875V10.6312C14.3216 10.7594 14.2167 10.8643 14.0885 10.8643H5.85462C5.72645 10.8643 5.62158 10.7594 5.62158 10.6312ZM13.7002 11.7187V18.0107C13.7002 18.5253 13.2826 18.9429 12.768 18.9429H7.17515C6.66053 18.9429 6.24301 18.5253 6.24301 18.0107V11.7187C6.24301 11.5906 6.34788 11.4857 6.47605 11.4857H13.4671C13.5953 11.4857 13.7002 11.5906 13.7002 11.7187ZM8.41801 13.0393C8.41801 12.8684 8.27819 12.7286 8.1073 12.7286C7.9364 12.7286 7.79658 12.8684 7.79658 13.0393V17.3893C7.79658 17.5602 7.9364 17.7 8.1073 17.7C8.27819 17.7 8.41801 17.5602 8.41801 17.3893V13.0393ZM10.2823 13.0393C10.2823 12.8684 10.1425 12.7286 9.97158 12.7286C9.80069 12.7286 9.66087 12.8684 9.66087 13.0393V17.3893C9.66087 17.5602 9.80069 17.7 9.97158 17.7C10.1425 17.7 10.2823 17.5602 10.2823 17.3893V13.0393ZM12.1466 13.0393C12.1466 12.8684 12.0068 12.7286 11.8359 12.7286C11.665 12.7286 11.5252 12.8684 11.5252 13.0393V17.3893C11.5252 17.5602 11.665 17.7 11.8359 17.7C12.0068 17.7 12.1466 17.5602 12.1466 17.3893V13.0393Z" fill="#B2002C"/>
</svg>
