<svg width="14" height="15" viewBox="0 0 14 15" fill="none" xmlns="http://www.w3.org/2000/svg">
<path fill-rule="evenodd" clip-rule="evenodd" d="M12.2185 0H3.79196C3.09387 0 2.52797 0.625992 2.52797 1.39821V2.79643H1.26399C0.565897 2.79643 0 3.42242 0 4.19464V13.5161C0 14.2883 0.565897 14.9143 1.26399 14.9143H9.69056C10.3886 14.9143 10.9545 14.2883 10.9545 13.5161V12.1179H12.2185C12.9166 12.1179 13.4825 11.4919 13.4825 10.7196V1.39821C13.4825 0.625992 12.9166 0 12.2185 0ZM9.53256 13.5161H1.42198C1.33472 13.5161 1.26399 13.4378 1.26399 13.3413V4.36942C1.26399 4.27289 1.33472 4.19464 1.42198 4.19464H2.52797V10.7196C2.52797 11.4919 3.09387 12.1179 3.79196 12.1179H9.69056V13.3413C9.69056 13.4378 9.61982 13.5161 9.53256 13.5161ZM12.0605 10.7196H3.94996C3.8627 10.7196 3.79196 10.6414 3.79196 10.5449V1.57299C3.79196 1.47646 3.8627 1.39821 3.94996 1.39821H12.0605C12.1478 1.39821 12.2185 1.47646 12.2185 1.57299V10.5449C12.2185 10.6414 12.1478 10.7196 12.0605 10.7196Z" fill="#2322F0"/>
</svg>
