<svg width="112" height="27" viewBox="0 0 112 27" fill="none" xmlns="http://www.w3.org/2000/svg">
<rect x="0.5" y="0.5" width="111" height="26" fill="#2322F0"/>
<rect x="0.5" y="0.5" width="111" height="26" stroke="#2322F0"/>
<path fill-rule="evenodd" clip-rule="evenodd" d="M17.7295 9.28413L19.9093 11.464C20.0012 11.5558 20.0012 11.7056 19.9093 11.7975L14.6313 17.0755L12.3887 17.3244C12.089 17.3582 11.8353 17.1045 11.8691 16.8048L12.118 14.5621L17.396 9.28413C17.4878 9.1923 17.6377 9.1923 17.7295 9.28413ZM21.6445 8.73071L20.4652 7.55138C20.0978 7.18405 19.5009 7.18405 19.1312 7.55138L18.2757 8.40688C18.1838 8.49871 18.1838 8.64855 18.2757 8.74038L20.4555 10.9202C20.5473 11.012 20.6972 11.012 20.789 10.9202L21.6445 10.0647C22.0118 9.69496 22.0118 9.09805 21.6445 8.73071ZM17.28 15.64V18.1001H9.54667V10.3668H15.1002C15.1775 10.3668 15.25 10.3354 15.3056 10.2822L16.2723 9.31555C16.4559 9.13188 16.3254 8.82013 16.0668 8.82013H9.16C8.51958 8.82013 8 9.33971 8 9.98013V18.4868C8 19.1272 8.51958 19.6468 9.16 19.6468H17.6667C18.3071 19.6468 18.8267 19.1272 18.8267 18.4868V14.6733C18.8267 14.4147 18.5149 14.2866 18.3313 14.4679L17.3646 15.4345C17.3114 15.4901 17.28 15.5626 17.28 15.64Z" fill="white"/>
<path d="M32.2716 18.5H27.4201V9.93359H32.2716V11.1172H28.8263V13.4434H32.0548V14.6211H28.8263V17.3105H32.2716V18.5ZM41.1983 14.1348C41.1983 15.0996 41.0186 15.9062 40.6592 16.5547C40.2998 17.1992 39.7784 17.6855 39.0948 18.0137C38.4112 18.3379 37.587 18.5 36.6221 18.5H34.2432V9.93359H36.8799C37.7666 9.93359 38.5323 10.0938 39.1768 10.4141C39.8213 10.7305 40.3194 11.2012 40.6709 11.8262C41.0225 12.4473 41.1983 13.2168 41.1983 14.1348ZM39.7334 14.1758C39.7334 13.4727 39.6221 12.8945 39.3995 12.4414C39.1807 11.9883 38.8565 11.6523 38.4268 11.4336C38.001 11.2109 37.4756 11.0996 36.8506 11.0996H35.6495V17.3223H36.6455C37.6807 17.3223 38.4541 17.0586 38.9659 16.5312C39.4776 16.0039 39.7334 15.2188 39.7334 14.1758ZM43.164 18.5V9.93359H44.5702V18.5H43.164ZM49.9227 18.5H48.5105V11.1289H46.0027V9.93359H52.4246V11.1289H49.9227V18.5ZM64.0494 14.1348C64.0494 15.0996 63.8697 15.9062 63.5103 16.5547C63.1509 17.1992 62.6295 17.6855 61.9459 18.0137C61.2623 18.3379 60.438 18.5 59.4732 18.5H57.0943V9.93359H59.731C60.6177 9.93359 61.3834 10.0938 62.0279 10.4141C62.6724 10.7305 63.1705 11.2012 63.522 11.8262C63.8736 12.4473 64.0494 13.2168 64.0494 14.1348ZM62.5845 14.1758C62.5845 13.4727 62.4732 12.8945 62.2505 12.4414C62.0318 11.9883 61.7076 11.6523 61.2779 11.4336C60.8521 11.2109 60.3267 11.0996 59.7017 11.0996H58.5005V17.3223H59.4966C60.5318 17.3223 61.3052 17.0586 61.817 16.5312C62.3287 16.0039 62.5845 15.2188 62.5845 14.1758ZM70.8666 18.5H66.0151V9.93359H70.8666V11.1172H67.4213V13.4434H70.6498V14.6211H67.4213V17.3105H70.8666V18.5ZM75.8089 18.5H74.3968V11.1289H71.889V9.93359H78.3109V11.1289H75.8089V18.5ZM85.052 18.5L84.2141 16.1211H80.9387L80.1008 18.5H78.6184L81.8059 9.89844H83.3645L86.5461 18.5H85.052ZM83.8508 14.9141L83.0363 12.5703C83.0051 12.4688 82.9602 12.3262 82.9016 12.1426C82.843 11.9551 82.7844 11.7656 82.7258 11.5742C82.6672 11.3789 82.6184 11.2148 82.5793 11.082C82.5402 11.2422 82.4914 11.4219 82.4328 11.6211C82.3781 11.8164 82.3234 12 82.2687 12.1719C82.218 12.3438 82.1789 12.4766 82.1516 12.5703L81.3312 14.9141H83.8508ZM87.797 18.5V9.93359H89.2032V18.5H87.797ZM91.5849 18.5V9.93359H92.9912V17.3047H96.6298V18.5H91.5849ZM103.178 16.168C103.178 16.6758 103.053 17.1133 102.803 17.4805C102.556 17.8477 102.201 18.1289 101.736 18.3242C101.275 18.5195 100.724 18.6172 100.084 18.6172C99.7713 18.6172 99.4725 18.5996 99.1873 18.5645C98.9022 18.5293 98.6327 18.4785 98.3788 18.4121C98.1288 18.3418 97.9002 18.2578 97.6932 18.1602V16.8359C98.0409 16.9883 98.4295 17.127 98.8592 17.252C99.2889 17.373 99.7264 17.4336 100.172 17.4336C100.535 17.4336 100.836 17.3867 101.074 17.293C101.316 17.1953 101.496 17.0586 101.613 16.8828C101.73 16.7031 101.789 16.4941 101.789 16.2559C101.789 16.002 101.721 15.7871 101.584 15.6113C101.447 15.4355 101.24 15.2754 100.963 15.1309C100.689 14.9824 100.346 14.8242 99.9315 14.6562C99.6502 14.543 99.3807 14.4141 99.1229 14.2695C98.869 14.125 98.6424 13.9551 98.4432 13.7598C98.244 13.5645 98.0858 13.334 97.9686 13.0684C97.8553 12.7988 97.7987 12.4824 97.7987 12.1191C97.7987 11.6348 97.9139 11.2207 98.1444 10.877C98.3788 10.5332 98.7069 10.2695 99.1288 10.0859C99.5545 9.90234 100.051 9.81055 100.617 9.81055C101.066 9.81055 101.488 9.85742 101.883 9.95117C102.281 10.0449 102.672 10.1777 103.055 10.3496L102.609 11.4805C102.258 11.3359 101.916 11.2207 101.584 11.1348C101.256 11.0488 100.92 11.0059 100.576 11.0059C100.279 11.0059 100.027 11.0508 99.8202 11.1406C99.6131 11.2305 99.4549 11.3574 99.3456 11.5215C99.2401 11.6816 99.1873 11.873 99.1873 12.0957C99.1873 12.3457 99.2479 12.5566 99.369 12.7285C99.494 12.8965 99.6854 13.0508 99.9432 13.1914C100.205 13.332 100.541 13.4883 100.951 13.6602C101.424 13.8555 101.824 14.0605 102.152 14.2754C102.484 14.4902 102.738 14.748 102.914 15.0488C103.09 15.3457 103.178 15.7188 103.178 16.168Z" fill="white"/>
</svg>
