<svg width="54" height="30" viewBox="0 0 54 30" fill="none" xmlns="http://www.w3.org/2000/svg">
<rect x="0.5" y="0.5" width="53" height="29" stroke="#2322F0"/>
<path d="M28.758 20H23.9065V11.4336H28.758V12.6172H25.3127V14.9434H28.5413V16.1211H25.3127V18.8105H28.758V20ZM37.6847 15.6348C37.6847 16.5996 37.505 17.4062 37.1456 18.0547C36.7863 18.6992 36.2648 19.1855 35.5812 19.5137C34.8976 19.8379 34.0734 20 33.1085 20H30.7296V11.4336H33.3663C34.253 11.4336 35.0187 11.5938 35.6632 11.9141C36.3077 12.2305 36.8058 12.7012 37.1573 13.3262C37.5089 13.9473 37.6847 14.7168 37.6847 15.6348ZM36.2198 15.6758C36.2198 14.9727 36.1085 14.3945 35.8859 13.9414C35.6671 13.4883 35.3429 13.1523 34.9132 12.9336C34.4874 12.7109 33.962 12.5996 33.337 12.5996H32.1359V18.8223H33.132C34.1671 18.8223 34.9405 18.5586 35.4523 18.0312C35.964 17.5039 36.2198 16.7188 36.2198 15.6758ZM39.6504 20V11.4336H41.0566V20H39.6504ZM46.4091 20H44.997V12.6289H42.4891V11.4336H48.911V12.6289H46.4091V20Z" fill="#2322F0"/>
<path fill-rule="evenodd" clip-rule="evenodd" d="M15.7295 10.784L17.9093 12.9638C18.0012 13.0557 18.0012 13.2055 17.9093 13.2973L12.6313 18.5753L10.3887 18.8243C10.089 18.8581 9.83525 18.6043 9.86908 18.3047L10.118 16.062L15.396 10.784C15.4878 10.6922 15.6377 10.6922 15.7295 10.784ZM19.6445 10.2306L18.4652 9.05126C18.0978 8.68392 17.5009 8.68392 17.1312 9.05126L16.2757 9.90676C16.1838 9.99859 16.1838 10.1484 16.2757 10.2403L18.4555 12.4201C18.5473 12.5119 18.6972 12.5119 18.789 12.4201L19.6445 11.5646C20.0118 11.1948 20.0118 10.5979 19.6445 10.2306ZM15.28 17.1398V19.6H7.54667V11.8667H13.1002C13.1775 11.8667 13.25 11.8353 13.3056 11.7821L14.2723 10.8154C14.4559 10.6318 14.3254 10.32 14.0668 10.32H7.16C6.51958 10.32 6 10.8396 6 11.48V19.9867C6 20.6271 6.51958 21.1467 7.16 21.1467H15.6667C16.3071 21.1467 16.8267 20.6271 16.8267 19.9867V16.1732C16.8267 15.9146 16.5149 15.7865 16.3313 15.9678L15.3646 16.9344C15.3114 16.99 15.28 17.0625 15.28 17.1398Z" fill="#2322F0"/>
</svg>
