<svg width="110" height="30" viewBox="0 0 110 30" fill="none" xmlns="http://www.w3.org/2000/svg">
<rect width="110" height="30" fill="white"/>
<rect x="0.5" y="0.5" width="109" height="29" stroke="#2322F0"/>
<path d="M29.8888 20H25.0373V11.4336H29.8888V12.6172H26.4435V14.9434H29.672V16.1211H26.4435V18.8105H29.8888V20ZM38.8155 15.6348C38.8155 16.5996 38.6358 17.4062 38.2764 18.0547C37.917 18.6992 37.3955 19.1855 36.712 19.5137C36.0284 19.8379 35.2041 20 34.2393 20H31.8604V11.4336H34.4971C35.3838 11.4336 36.1495 11.5938 36.794 11.9141C37.4385 12.2305 37.9366 12.7012 38.2881 13.3262C38.6397 13.9473 38.8155 14.7168 38.8155 15.6348ZM37.3506 15.6758C37.3506 14.9727 37.2393 14.3945 37.0166 13.9414C36.7979 13.4883 36.4737 13.1523 36.044 12.9336C35.6182 12.7109 35.0928 12.5996 34.4678 12.5996H33.2666V18.8223H34.2627C35.2979 18.8223 36.0713 18.5586 36.583 18.0312C37.0948 17.5039 37.3506 16.7188 37.3506 15.6758ZM40.7812 20V11.4336H42.1874V20H40.7812ZM47.5398 20H46.1277V12.6289H43.6199V11.4336H50.0418V12.6289H47.5398V20ZM57.2017 11.4336C58.3072 11.4336 59.1138 11.6602 59.6216 12.1133C60.1295 12.5664 60.3834 13.2012 60.3834 14.0176C60.3834 14.3887 60.3248 14.7422 60.2076 15.0781C60.0943 15.4102 59.9068 15.7051 59.6451 15.9629C59.3834 16.2168 59.0377 16.418 58.608 16.5664C58.1822 16.7148 57.6568 16.7891 57.0318 16.7891H56.1177V20H54.7115V11.4336H57.2017ZM57.108 12.5996H56.1177V15.6172H56.8853C57.3267 15.6172 57.7017 15.5664 58.0103 15.4648C58.3189 15.3594 58.5533 15.1934 58.7134 14.9668C58.8736 14.7402 58.9537 14.4414 58.9537 14.0703C58.9537 13.5742 58.8033 13.2051 58.5025 12.9629C58.2056 12.7207 57.7408 12.5996 57.108 12.5996ZM64.6225 11.4336C65.3608 11.4336 65.9702 11.5234 66.4506 11.7031C66.935 11.8828 67.2944 12.1562 67.5288 12.5234C67.767 12.8906 67.8862 13.3574 67.8862 13.9238C67.8862 14.3457 67.808 14.7051 67.6518 15.002C67.4955 15.2988 67.2905 15.5449 67.0366 15.7402C66.7827 15.9355 66.5112 16.0918 66.2221 16.209L68.6538 20H67.0659L64.9975 16.5664H63.6205V20H62.2143V11.4336H64.6225ZM64.5288 12.6055H63.6205V15.4062H64.5932C65.2455 15.4062 65.7182 15.2852 66.0112 15.043C66.308 14.8008 66.4565 14.4434 66.4565 13.9707C66.4565 13.4746 66.2983 13.123 65.9819 12.916C65.6694 12.709 65.185 12.6055 64.5288 12.6055ZM74.8499 20H69.9984V11.4336H74.8499V12.6172H71.4046V14.9434H74.6331V16.1211H71.4046V18.8105H74.8499V20ZM80.5187 20L78.052 12.8457H77.9992C78.0109 13.0059 78.0246 13.2246 78.0402 13.502C78.0559 13.7793 78.0695 14.0762 78.0812 14.3926C78.093 14.709 78.0988 15.0117 78.0988 15.3008V20H76.8215V11.4336H78.7961L81.1691 18.2715H81.2043L83.6594 11.4336H85.6281V20H84.2863V15.2305C84.2863 14.9688 84.2902 14.6855 84.298 14.3809C84.3098 14.0762 84.3215 13.7871 84.3332 13.5137C84.3488 13.2402 84.3605 13.0215 84.3684 12.8574H84.3215L81.7609 20H80.5187ZM88.004 20V11.4336H89.4102V20H88.004ZM96.7373 17.668C96.7373 18.1758 96.6123 18.6133 96.3623 18.9805C96.1162 19.3477 95.7607 19.6289 95.2959 19.8242C94.8349 20.0195 94.2841 20.1172 93.6435 20.1172C93.331 20.1172 93.0322 20.0996 92.747 20.0645C92.4619 20.0293 92.1923 19.9785 91.9384 19.9121C91.6884 19.8418 91.4599 19.7578 91.2529 19.6602V18.3359C91.6005 18.4883 91.9892 18.627 92.4189 18.752C92.8486 18.873 93.2861 18.9336 93.7314 18.9336C94.0947 18.9336 94.3955 18.8867 94.6337 18.793C94.8759 18.6953 95.0556 18.5586 95.1728 18.3828C95.29 18.2031 95.3486 17.9941 95.3486 17.7559C95.3486 17.502 95.2802 17.2871 95.1435 17.1113C95.0068 16.9355 94.7998 16.7754 94.5224 16.6309C94.249 16.4824 93.9052 16.3242 93.4912 16.1562C93.2099 16.043 92.9404 15.9141 92.6826 15.7695C92.4287 15.625 92.2021 15.4551 92.0029 15.2598C91.8037 15.0645 91.6455 14.834 91.5283 14.5684C91.415 14.2988 91.3584 13.9824 91.3584 13.6191C91.3584 13.1348 91.4736 12.7207 91.7041 12.377C91.9384 12.0332 92.2666 11.7695 92.6884 11.5859C93.1142 11.4023 93.6103 11.3105 94.1767 11.3105C94.6259 11.3105 95.0478 11.3574 95.4423 11.4512C95.8408 11.5449 96.2314 11.6777 96.6142 11.8496L96.1689 12.9805C95.8173 12.8359 95.4755 12.7207 95.1435 12.6348C94.8154 12.5488 94.4794 12.5059 94.1357 12.5059C93.8388 12.5059 93.5869 12.5508 93.3798 12.6406C93.1728 12.7305 93.0146 12.8574 92.9052 13.0215C92.7998 13.1816 92.747 13.373 92.747 13.5957C92.747 13.8457 92.8076 14.0566 92.9287 14.2285C93.0537 14.3965 93.2451 14.5508 93.5029 14.6914C93.7646 14.832 94.1005 14.9883 94.5107 15.1602C94.9834 15.3555 95.3837 15.5605 95.7119 15.7754C96.0439 15.9902 96.2978 16.248 96.4736 16.5488C96.6494 16.8457 96.7373 17.2188 96.7373 17.668ZM103.361 20H98.5096V11.4336H103.361V12.6172H99.9159V14.9434H103.144V16.1211H99.9159V18.8105H103.361V20Z" fill="#2322F0"/>
<path fill-rule="evenodd" clip-rule="evenodd" d="M17.7295 10.7841L19.9093 12.964C20.0012 13.0558 20.0012 13.2056 19.9093 13.2975L14.6313 18.5755L12.3887 18.8244C12.089 18.8582 11.8353 18.6045 11.8691 18.3048L12.118 16.0621L17.396 10.7841C17.4878 10.6923 17.6377 10.6923 17.7295 10.7841ZM21.6445 10.2307L20.4652 9.05138C20.0978 8.68405 19.5009 8.68405 19.1312 9.05138L18.2757 9.90688C18.1838 9.99871 18.1838 10.1485 18.2757 10.2404L20.4555 12.4202C20.5473 12.512 20.6972 12.512 20.789 12.4202L21.6445 11.5647C22.0118 11.195 22.0118 10.598 21.6445 10.2307ZM17.28 17.14V19.6001H9.54667V11.8668H15.1002C15.1775 11.8668 15.25 11.8354 15.3056 11.7822L16.2723 10.8155C16.4559 10.6319 16.3254 10.3201 16.0668 10.3201H9.16C8.51958 10.3201 8 10.8397 8 11.4801V19.9868C8 20.6272 8.51958 21.1468 9.16 21.1468H17.6667C18.3071 21.1468 18.8267 20.6272 18.8267 19.9868V16.1733C18.8267 15.9147 18.5149 15.7866 18.3313 15.9679L17.3646 16.9345C17.3114 16.9901 17.28 17.0626 17.28 17.14Z" fill="#2322F0"/>
</svg>
