<svg width="14" height="13" viewBox="0 0 14 13" fill="none" xmlns="http://www.w3.org/2000/svg">
<path fill-rule="evenodd" clip-rule="evenodd" d="M9.72225 8.3369L10.4956 7.56356C10.6164 7.44273 10.8267 7.52731 10.8267 7.70131V11.2151C10.8267 11.8556 10.3071 12.3751 9.66667 12.3751H1.16C0.519583 12.3751 0 11.8556 0 11.2151V2.70848C0 2.06806 0.519583 1.54848 1.16 1.54848H7.76958C7.94117 1.54848 8.02817 1.75631 7.90733 1.87956L7.134 2.6529C7.09775 2.68915 7.04942 2.70848 6.99625 2.70848H1.16V11.2151H9.66667V8.47223C9.66667 8.42148 9.686 8.37315 9.72225 8.3369ZM13.5068 3.46006L7.16058 9.80623L4.97592 10.0479C4.34275 10.118 3.80383 9.5839 3.87392 8.9459L4.11558 6.76123L10.4618 0.415062C11.0152 -0.138354 11.9093 -0.138354 12.4603 0.415062L13.5043 1.45906C14.0577 2.01248 14.0577 2.90906 13.5068 3.46006ZM11.1191 4.20681L9.715 2.80273L5.22483 7.29531L5.04842 8.8734L6.6265 8.69698L11.1191 4.20681ZM12.6851 2.28073L11.6411 1.23673C11.542 1.13765 11.3801 1.13765 11.2834 1.23673L10.5367 1.98348L11.9408 3.38756L12.6875 2.64081C12.7842 2.53931 12.7842 2.37981 12.6851 2.28073Z" fill="#2322F0"/>
</svg>
