<svg width="74" height="34" viewBox="0 0 74 34" fill="none" xmlns="http://www.w3.org/2000/svg">
<rect x="0.5" y="0.5" width="73" height="33" rx="4" stroke="#2322F0"/>
<path d="M17.1744 19.7793C17.1744 20.3717 17.0286 20.8822 16.7369 21.3105C16.4498 21.7389 16.0351 22.0671 15.4928 22.2949C14.955 22.5228 14.3124 22.6367 13.565 22.6367C13.2005 22.6367 12.8518 22.6162 12.5191 22.5752C12.1865 22.5342 11.872 22.4749 11.5758 22.3975C11.2841 22.3154 11.0175 22.2174 10.776 22.1035V20.5586C11.1816 20.7363 11.635 20.8981 12.1363 21.0439C12.6376 21.1852 13.148 21.2559 13.6676 21.2559C14.0914 21.2559 14.4423 21.2012 14.7203 21.0918C15.0029 20.9779 15.2125 20.8184 15.3492 20.6133C15.4859 20.4036 15.5543 20.1598 15.5543 19.8818C15.5543 19.5856 15.4745 19.335 15.315 19.1299C15.1555 18.9248 14.914 18.738 14.5904 18.5693C14.2714 18.3962 13.8704 18.2116 13.3873 18.0156C13.0592 17.8835 12.7447 17.7331 12.4439 17.5645C12.1477 17.3958 11.8834 17.1976 11.651 16.9697C11.4186 16.7419 11.234 16.473 11.0973 16.1631C10.9651 15.8486 10.899 15.4795 10.899 15.0557C10.899 14.4906 11.0335 14.0075 11.3023 13.6064C11.5758 13.2054 11.9586 12.8978 12.4508 12.6836C12.9475 12.4694 13.5263 12.3623 14.1871 12.3623C14.7112 12.3623 15.2034 12.417 15.6637 12.5264C16.1285 12.6357 16.5842 12.7907 17.0309 12.9912L16.5113 14.3105C16.1012 14.1419 15.7024 14.0075 15.315 13.9072C14.9322 13.807 14.5403 13.7568 14.1393 13.7568C13.7929 13.7568 13.499 13.8092 13.2574 13.9141C13.0159 14.0189 12.8313 14.167 12.7037 14.3584C12.5807 14.5452 12.5191 14.7686 12.5191 15.0283C12.5191 15.32 12.5898 15.5661 12.7311 15.7666C12.8769 15.9626 13.1002 16.1426 13.401 16.3066C13.7063 16.4707 14.0982 16.653 14.5768 16.8535C15.1282 17.0814 15.5953 17.3206 15.9781 17.5713C16.3655 17.8219 16.6617 18.1227 16.8668 18.4736C17.0719 18.82 17.1744 19.2552 17.1744 19.7793ZM24.9023 22.5H19.2421V12.5059H24.9023V13.8867H20.8828V16.6006H24.6494V17.9746H20.8828V21.1123H24.9023V22.5ZM33.3958 22.5L32.4183 19.7246H28.597L27.6195 22.5H25.89L29.6087 12.4648H31.4271L35.139 22.5H33.3958ZM31.9945 18.3164L31.0443 15.582C31.0078 15.4635 30.9554 15.2972 30.887 15.083C30.8187 14.8643 30.7503 14.6432 30.682 14.4199C30.6136 14.1921 30.5566 14.0007 30.5111 13.8457C30.4655 14.0326 30.4085 14.2422 30.3402 14.4746C30.2764 14.7025 30.2126 14.9167 30.1487 15.1172C30.0895 15.3177 30.0439 15.4727 30.012 15.582L29.055 18.3164H31.9945ZM39.4079 12.5059C40.2692 12.5059 40.9802 12.6107 41.5407 12.8203C42.1058 13.0299 42.5251 13.349 42.7985 13.7773C43.0765 14.2057 43.2155 14.7503 43.2155 15.4111C43.2155 15.9033 43.1244 16.3226 42.9421 16.6689C42.7598 17.0153 42.5205 17.3024 42.2243 17.5303C41.9281 17.7581 41.6113 17.9404 41.2741 18.0771L44.111 22.5H42.2585L39.8454 18.4941H38.2389V22.5H36.5983V12.5059H39.4079ZM39.2985 13.873H38.2389V17.1406H39.3737C40.1348 17.1406 40.6862 16.9993 41.028 16.7168C41.3744 16.4342 41.5475 16.0173 41.5475 15.4658C41.5475 14.887 41.363 14.4769 40.9938 14.2354C40.6292 13.9938 40.0641 13.873 39.2985 13.873ZM49.9385 13.7568C49.46 13.7568 49.0316 13.8434 48.6534 14.0166C48.2797 14.1898 47.9629 14.4404 47.7032 14.7686C47.4434 15.0921 47.2452 15.4863 47.1084 15.9512C46.9717 16.4115 46.9034 16.931 46.9034 17.5098C46.9034 18.2845 47.0127 18.9521 47.2315 19.5127C47.4502 20.0687 47.7829 20.4971 48.2295 20.7979C48.6761 21.0941 49.2412 21.2422 49.9248 21.2422C50.3487 21.2422 50.7611 21.2012 51.1621 21.1191C51.5632 21.0371 51.9779 20.9255 52.4063 20.7842V22.1787C52.0007 22.3382 51.5905 22.4544 51.1758 22.5273C50.7611 22.6003 50.2826 22.6367 49.7403 22.6367C48.7194 22.6367 47.8718 22.4248 47.1973 22.001C46.5274 21.5771 46.0261 20.9801 45.6934 20.21C45.3653 19.4398 45.2012 18.5374 45.2012 17.5029C45.2012 16.7464 45.306 16.0537 45.5157 15.4248C45.7253 14.7959 46.0306 14.2536 46.4317 13.7979C46.8327 13.3376 47.3272 12.9844 47.9151 12.7383C48.5075 12.4876 49.1843 12.3623 49.9454 12.3623C50.4467 12.3623 50.9388 12.4193 51.4219 12.5332C51.9095 12.6426 52.3607 12.7998 52.7754 13.0049L52.2012 14.3584C51.8549 14.1943 51.4926 14.0531 51.1143 13.9346C50.736 13.8161 50.3441 13.7568 49.9385 13.7568ZM62.5746 22.5H60.9408V17.9883H56.3334V22.5H54.6928V12.5059H56.3334V16.5938H60.9408V12.5059H62.5746V22.5Z" fill="#2322F0"/>
</svg>
