<svg width="14" height="14" viewBox="0 0 14 14" fill="none" xmlns="http://www.w3.org/2000/svg">
<path fill-rule="evenodd" clip-rule="evenodd" d="M11.6877 13.6314L13.6314 11.6877C13.9704 11.3487 13.9704 10.8041 13.6314 10.4652L10.1262 6.95992L13.6314 3.45468C13.9704 3.11569 13.9704 2.57115 13.6314 2.23217L11.6877 0.288418C11.3487 -0.0505664 10.8041 -0.0505664 10.4652 0.288418L6.95992 3.79366L3.45468 0.288418C3.11569 -0.0505664 2.57115 -0.0505664 2.23217 0.288418L0.288418 2.23217C-0.0505664 2.57115 -0.0505664 3.11569 0.288418 3.45468L3.79366 6.95992L0.288418 10.4652C-0.0505664 10.8041 -0.0505664 11.3487 0.288418 11.6877L2.23217 13.6314C2.57115 13.9704 3.11569 13.9704 3.45468 13.6314L6.95992 10.1262L10.4652 13.6314C10.8005 13.9668 11.3487 13.9668 11.6877 13.6314Z" fill="#878787"/>
</svg>
